<?xml version="1.0" encoding="UTF-8"?>
<svg xmlns="http://www.w3.org/2000/svg" xmlns:xlink="http://www.w3.org/1999/xlink"
     width="1800" height="1575" viewBox="0 0 1800 1575">
<defs>
</defs>
<rect x="0" y="0" width="1800" height="1575" fill="#f5f5f5" />
<text x="900.0" y="30" font-size="20" text-anchor="middle" font-family="Arial, sans-serif" font-weight="bold" fill="#212121">Gene Review: MTC7 (Saccharomyces cerevisiae S288C)</text>
<rect x="40" y="100" width="1720" height="35" fill="#e3f2fd" stroke="#bdbdbd" stroke-width="1" rx="5" ry="5" />
<text x="50" y="122.5" font-size="16" font-family="Arial, sans-serif" font-weight="bold" fill="#212121">Biological Process</text>
<rect x="40" y="455" width="1720" height="35" fill="#e3f2fd" stroke="#bdbdbd" stroke-width="1" rx="5" ry="5" />
<text x="50" y="477.5" font-size="16" font-family="Arial, sans-serif" font-weight="bold" fill="#212121">Molecular Function</text>
<rect x="40" y="810" width="1720" height="35" fill="#e3f2fd" stroke="#bdbdbd" stroke-width="1" rx="5" ry="5" />
<text x="50" y="832.5" font-size="16" font-family="Arial, sans-serif" font-weight="bold" fill="#212121">Cellular Component</text>
<rect x="60" y="155" width="220" height="35" fill="#e8f5e9" stroke="#bdbdbd" stroke-width="1" rx="3" ry="3" />
<text x="68" y="176.5" font-size="13" font-family="Arial, sans-serif" fill="#212121">biological_process</text>
<rect x="60" y="510" width="220" height="35" fill="#e8f5e9" stroke="#bdbdbd" stroke-width="1" rx="3" ry="3" />
<text x="68" y="531.5" font-size="13" font-family="Arial, sans-serif" fill="#212121">molecular_function</text>
<rect x="60" y="865" width="220" height="35" fill="#e8f5e9" stroke="#bdbdbd" stroke-width="1" rx="3" ry="3" />
<text x="68" y="886.5" font-size="13" font-family="Arial, sans-serif" fill="#212121">anatomical entity</text>
<rect x="60" y="1095" width="220" height="35" fill="#e8f5e9" stroke="#bdbdbd" stroke-width="1" rx="3" ry="3" />
<text x="68" y="1116.5" font-size="13" font-family="Arial, sans-serif" fill="#212121">cellular_component</text>
<rect x="80" y="200" width="200" height="45" fill="#ffffff" stroke="#f44336" stroke-width="2" rx="3" ry="3" />
<text x="85" y="214" font-size="10" font-family="monospace" fill="#666666">GO:0008150</text>
<text x="85" y="230" font-size="11" font-family="Arial, sans-serif" fill="#212121">biological_process</text>
<rect x="80" y="555" width="200" height="45" fill="#ffffff" stroke="#f44336" stroke-width="2" rx="3" ry="3" />
<text x="85" y="569" font-size="10" font-family="monospace" fill="#666666">GO:0003674</text>
<text x="85" y="585" font-size="11" font-family="Arial, sans-serif" fill="#212121">molecular_function</text>
<rect x="80" y="910" width="200" height="45" fill="#ffffff" stroke="#4caf50" stroke-width="2" rx="3" ry="3" />
<text x="85" y="924" font-size="10" font-family="monospace" fill="#666666">GO:0016020</text>
<text x="85" y="940" font-size="11" font-family="Arial, sans-serif" fill="#212121">membrane</text>
<rect x="80" y="1140" width="200" height="45" fill="#ffffff" stroke="#f44336" stroke-width="2" rx="3" ry="3" />
<text x="85" y="1154" font-size="10" font-family="monospace" fill="#666666">GO:0005575</text>
<text x="85" y="1170" font-size="11" font-family="Arial, sans-serif" fill="#212121">cellular_component</text>
<path d="M332,932.5 L337,937.5 L348,924.5" stroke="#4caf50" stroke-width="3" fill="none" />
<path d="M332,569.5 L348,585.5" stroke="#f44336" stroke-width="3" />
<path d="M332,585.5 L348,569.5" stroke="#f44336" stroke-width="3" />
<path d="M332,1154.5 L348,1170.5" stroke="#f44336" stroke-width="3" />
<path d="M332,1170.5 L348,1154.5" stroke="#f44336" stroke-width="3" />
<path d="M332,214.5 L348,230.5" stroke="#f44336" stroke-width="3" />
<path d="M332,230.5 L348,214.5" stroke="#f44336" stroke-width="3" />
<rect x="600.0" y="1435" width="600" height="60" fill="white" stroke="#bdbdbd" stroke-width="1" rx="5" ry="5" />
<text x="620.0" y="1470.0" font-size="16" font-family="Arial, sans-serif" fill="#4caf50">✓</text>
<text x="640.0" y="1470.0" font-size="12" font-family="Arial, sans-serif" fill="#212121">Accept</text>
<text x="715.0" y="1470.0" font-size="16" font-family="Arial, sans-serif" fill="#ff9800">→</text>
<text x="735.0" y="1470.0" font-size="12" font-family="Arial, sans-serif" fill="#212121">Modify</text>
<text x="810.0" y="1470.0" font-size="16" font-family="Arial, sans-serif" fill="#f44336">✗</text>
<text x="830.0" y="1470.0" font-size="12" font-family="Arial, sans-serif" fill="#212121">Remove</text>
<text x="905.0" y="1470.0" font-size="16" font-family="Arial, sans-serif" fill="#ffc107">⚠</text>
<text x="925.0" y="1470.0" font-size="12" font-family="Arial, sans-serif" fill="#212121">Over-annotated</text>
<text x="1000.0" y="1470.0" font-size="16" font-family="Arial, sans-serif" fill="#795548">○</text>
<text x="1020.0" y="1470.0" font-size="12" font-family="Arial, sans-serif" fill="#212121">Non-core</text>
<text x="1095.0" y="1470.0" font-size="16" font-family="Arial, sans-serif" fill="#9e9e9e">?</text>
<text x="1115.0" y="1470.0" font-size="12" font-family="Arial, sans-serif" fill="#212121">Undecided</text>
</svg>