<?xml version="1.0" encoding="UTF-8"?>
<svg xmlns="http://www.w3.org/2000/svg" xmlns:xlink="http://www.w3.org/1999/xlink"
     width="1800" height="3685" viewBox="0 0 1800 3685">
<defs>
</defs>
<rect x="0" y="0" width="1800" height="3685" fill="#f5f5f5" />
<text x="900.0" y="30" font-size="20" text-anchor="middle" font-family="Arial, sans-serif" font-weight="bold" fill="#212121">Gene Review: CKAP2 (Homo sapiens)</text>
<rect x="40" y="100" width="1720" height="35" fill="#e3f2fd" stroke="#bdbdbd" stroke-width="1" rx="5" ry="5" />
<text x="50" y="122.5" font-size="16" font-family="Arial, sans-serif" font-weight="bold" fill="#212121">Biological Process</text>
<rect x="40" y="1120" width="1720" height="35" fill="#e3f2fd" stroke="#bdbdbd" stroke-width="1" rx="5" ry="5" />
<text x="50" y="1142.5" font-size="16" font-family="Arial, sans-serif" font-weight="bold" fill="#212121">Cellular Component</text>
<rect x="60" y="155" width="220" height="35" fill="#e8f5e9" stroke="#bdbdbd" stroke-width="1" rx="3" ry="3" />
<text x="68" y="176.5" font-size="13" font-family="Arial, sans-serif" fill="#212121">biological regulation</text>
<rect x="60" y="675" width="220" height="35" fill="#e8f5e9" stroke="#bdbdbd" stroke-width="1" rx="3" ry="3" />
<text x="68" y="696.5" font-size="13" font-family="Arial, sans-serif" fill="#212121">cellular process</text>
<rect x="60" y="1175" width="220" height="35" fill="#e8f5e9" stroke="#bdbdbd" stroke-width="1" rx="3" ry="3" />
<text x="68" y="1196.5" font-size="13" font-family="Arial, sans-serif" fill="#212121">cellular_component</text>
<rect x="80" y="345" width="200" height="45" fill="#ffffff" stroke="#4caf50" stroke-width="2" rx="3" ry="3" />
<text x="85" y="359" font-size="10" font-family="monospace" fill="#666666">GO:0007026</text>
<text x="85" y="375" font-size="11" font-family="Arial, sans-serif" fill="#212121">negative regulation of microtubule ...</text>
<rect x="80" y="490" width="200" height="45" fill="#ffffff" stroke="#f44336" stroke-width="2" rx="3" ry="3" />
<text x="85" y="504" font-size="10" font-family="monospace" fill="#666666">GO:0045944</text>
<text x="85" y="520" font-size="11" font-family="Arial, sans-serif" fill="#212121">positive regulation of transcriptio...</text>
<rect x="80" y="720" width="200" height="45" fill="#ffffff" stroke="#795548" stroke-width="2" rx="3" ry="3" />
<text x="85" y="734" font-size="10" font-family="monospace" fill="#666666">GO:0006915</text>
<text x="85" y="750" font-size="11" font-family="Arial, sans-serif" fill="#212121">apoptotic process</text>
<rect x="80" y="865" width="200" height="45" fill="#ffffff" stroke="#4caf50" stroke-width="2" rx="3" ry="3" />
<text x="85" y="879" font-size="10" font-family="monospace" fill="#666666">GO:0000281</text>
<text x="85" y="895" font-size="11" font-family="Arial, sans-serif" fill="#212121">mitotic cytokinesis</text>
<rect x="80" y="3105" width="200" height="45" fill="#ffffff" stroke="#4caf50" stroke-width="2" rx="3" ry="3" />
<text x="85" y="3119" font-size="10" font-family="monospace" fill="#666666">GO:0015630</text>
<text x="85" y="3135" font-size="11" font-family="Arial, sans-serif" fill="#212121">microtubule cytoskeleton</text>
<rect x="80" y="1365" width="200" height="45" fill="#ffffff" stroke="#4caf50" stroke-width="2" rx="3" ry="3" />
<text x="85" y="1379" font-size="10" font-family="monospace" fill="#666666">GO:0000922</text>
<text x="85" y="1395" font-size="11" font-family="Arial, sans-serif" fill="#212121">spindle pole</text>
<rect x="80" y="1510" width="200" height="45" fill="#ffffff" stroke="#795548" stroke-width="2" rx="3" ry="3" />
<text x="85" y="1524" font-size="10" font-family="monospace" fill="#666666">GO:0005737</text>
<text x="85" y="1540" font-size="11" font-family="Arial, sans-serif" fill="#212121">cytoplasm</text>
<rect x="80" y="1655" width="200" height="45" fill="#ffffff" stroke="#4caf50" stroke-width="2" rx="3" ry="3" />
<text x="85" y="1669" font-size="10" font-family="monospace" fill="#666666">GO:0005819</text>
<text x="85" y="1685" font-size="11" font-family="Arial, sans-serif" fill="#212121">spindle</text>
<rect x="80" y="1800" width="200" height="45" fill="#ffffff" stroke="#795548" stroke-width="2" rx="3" ry="3" />
<text x="85" y="1814" font-size="10" font-family="monospace" fill="#666666">GO:0005856</text>
<text x="85" y="1830" font-size="11" font-family="Arial, sans-serif" fill="#212121">cytoskeleton</text>
<rect x="80" y="1945" width="200" height="45" fill="#ffffff" stroke="#4caf50" stroke-width="2" rx="3" ry="3" />
<text x="85" y="1959" font-size="10" font-family="monospace" fill="#666666">GO:0005874</text>
<text x="85" y="1975" font-size="11" font-family="Arial, sans-serif" fill="#212121">microtubule</text>
<rect x="80" y="2235" width="200" height="45" fill="#ffffff" stroke="#795548" stroke-width="2" rx="3" ry="3" />
<text x="85" y="2249" font-size="10" font-family="monospace" fill="#666666">GO:0005730</text>
<text x="85" y="2265" font-size="11" font-family="Arial, sans-serif" fill="#212121">nucleolus</text>
<rect x="80" y="3250" width="200" height="45" fill="#ffffff" stroke="#4caf50" stroke-width="2" rx="3" ry="3" />
<text x="85" y="3264" font-size="10" font-family="monospace" fill="#666666">GO:0005813</text>
<text x="85" y="3280" font-size="11" font-family="Arial, sans-serif" fill="#212121">centrosome</text>
<rect x="80" y="2525" width="200" height="45" fill="#ffffff" stroke="#ffc107" stroke-width="2" rx="3" ry="3" />
<text x="85" y="2539" font-size="10" font-family="monospace" fill="#666666">GO:0005929</text>
<text x="85" y="2555" font-size="11" font-family="Arial, sans-serif" fill="#212121">cilium</text>
<rect x="80" y="2815" width="200" height="45" fill="#ffffff" stroke="#ffc107" stroke-width="2" rx="3" ry="3" />
<text x="85" y="2829" font-size="10" font-family="monospace" fill="#666666">GO:0036064</text>
<text x="85" y="2845" font-size="11" font-family="Arial, sans-serif" fill="#212121">ciliary basal body</text>
<rect x="80" y="2960" width="200" height="45" fill="#ffffff" stroke="#4caf50" stroke-width="2" rx="3" ry="3" />
<text x="85" y="2974" font-size="10" font-family="monospace" fill="#666666">GO:0072686</text>
<text x="85" y="2990" font-size="11" font-family="Arial, sans-serif" fill="#212121">mitotic spindle</text>
<path d="M332,3127.5 L337,3132.5 L348,3119.5" stroke="#4caf50" stroke-width="3" fill="none" />
<path d="M332,367.5 L337,372.5 L348,359.5" stroke="#4caf50" stroke-width="3" fill="none" />
<path d="M332,1387.5 L337,1392.5 L348,1379.5" stroke="#4caf50" stroke-width="3" fill="none" />
<circle cx="340" cy="1532.5" r="8" fill="none" stroke="#795548" stroke-width="2" />
<path d="M332,1677.5 L337,1682.5 L348,1669.5" stroke="#4caf50" stroke-width="3" fill="none" />
<circle cx="340" cy="1822.5" r="8" fill="none" stroke="#795548" stroke-width="2" />
<path d="M332,1967.5 L337,1972.5 L348,1959.5" stroke="#4caf50" stroke-width="3" fill="none" />
<circle cx="340" cy="742.5" r="8" fill="none" stroke="#795548" stroke-width="2" />
<circle cx="340" cy="2257.5" r="8" fill="none" stroke="#795548" stroke-width="2" />
<path d="M332,3272.5 L337,3277.5 L348,3264.5" stroke="#4caf50" stroke-width="3" fill="none" />
<path d="M340,2537.5 L330,2555.5 L350,2555.5 Z" fill="#ffc107" />
<text x="340" y="2551.5" font-size="14" text-anchor="middle" font-family="Arial, sans-serif" font-weight="bold" fill="white">!</text>
<path d="M340,2827.5 L330,2845.5 L350,2845.5 Z" fill="#ffc107" />
<text x="340" y="2841.5" font-size="14" text-anchor="middle" font-family="Arial, sans-serif" font-weight="bold" fill="white">!</text>
<path d="M332,2982.5 L337,2987.5 L348,2974.5" stroke="#4caf50" stroke-width="3" fill="none" />
<path d="M332,887.5 L337,892.5 L348,879.5" stroke="#4caf50" stroke-width="3" fill="none" />
<path d="M332,504.5 L348,520.5" stroke="#f44336" stroke-width="3" />
<path d="M332,520.5 L348,504.5" stroke="#f44336" stroke-width="3" />
<rect x="385" y="3105" width="320" height="85" fill="#e1f5fe" stroke="#0288d1" stroke-width="1" rx="3" ry="3" />
<text x="390" y="3115" font-size="8" font-family="monospace" font-weight="bold" fill="#0288d1">[16061649]</text>
<text x="390" y="3123" font-size="8" font-family="Arial, sans-serif" fill="#212121">Overexpressed Ckap2 colocalizes with and stabilizes microtubules</text>
<rect x="385" y="865" width="320" height="85" fill="#e1f5fe" stroke="#0288d1" stroke-width="1" rx="3" ry="3" />
<text x="390" y="875" font-size="8" font-family="monospace" font-weight="bold" fill="#0288d1">[16061649]</text>
<text x="390" y="883" font-size="8" font-family="Arial, sans-serif" fill="#212121">In p53-null cells, overexpression of Ckap2 induces tetraploidy with</text>
<text x="390" y="892" font-size="8" font-family="Arial, sans-serif" fill="#212121">aberrant centrosome numbers, suggesting disturbed mitosis and</text>
<text x="390" y="901" font-size="8" font-family="Arial, sans-serif" fill="#212121">cytokinesis</text>
<rect x="385" y="3250" width="320" height="85" fill="#e1f5fe" stroke="#0288d1" stroke-width="1" rx="3" ry="3" />
<text x="390" y="3260" font-size="8" font-family="monospace" font-weight="bold" fill="#0288d1">[21399614]</text>
<text x="390" y="3268" font-size="8" font-family="Arial, sans-serif" fill="#212121">From a background of non-specific proteins, we distinguished 126</text>
<text x="390" y="3277" font-size="8" font-family="Arial, sans-serif" fill="#212121">known and 40 candidate centrosomal proteins, of which 22 were</text>
<text x="390" y="3286" font-size="8" font-family="Arial, sans-serif" fill="#212121">confirmed as novel components</text>
<rect x="600.0" y="3545" width="600" height="60" fill="white" stroke="#bdbdbd" stroke-width="1" rx="5" ry="5" />
<text x="620.0" y="3580.0" font-size="16" font-family="Arial, sans-serif" fill="#4caf50">✓</text>
<text x="640.0" y="3580.0" font-size="12" font-family="Arial, sans-serif" fill="#212121">Accept</text>
<text x="715.0" y="3580.0" font-size="16" font-family="Arial, sans-serif" fill="#ff9800">→</text>
<text x="735.0" y="3580.0" font-size="12" font-family="Arial, sans-serif" fill="#212121">Modify</text>
<text x="810.0" y="3580.0" font-size="16" font-family="Arial, sans-serif" fill="#f44336">✗</text>
<text x="830.0" y="3580.0" font-size="12" font-family="Arial, sans-serif" fill="#212121">Remove</text>
<text x="905.0" y="3580.0" font-size="16" font-family="Arial, sans-serif" fill="#ffc107">⚠</text>
<text x="925.0" y="3580.0" font-size="12" font-family="Arial, sans-serif" fill="#212121">Over-annotated</text>
<text x="1000.0" y="3580.0" font-size="16" font-family="Arial, sans-serif" fill="#795548">○</text>
<text x="1020.0" y="3580.0" font-size="12" font-family="Arial, sans-serif" fill="#212121">Non-core</text>
<text x="1095.0" y="3580.0" font-size="16" font-family="Arial, sans-serif" fill="#9e9e9e">?</text>
<text x="1115.0" y="3580.0" font-size="12" font-family="Arial, sans-serif" fill="#212121">Undecided</text>
</svg>