<?xml version="1.0" encoding="UTF-8"?>
<svg xmlns="http://www.w3.org/2000/svg" xmlns:xlink="http://www.w3.org/1999/xlink"
     width="1800" height="2235" viewBox="0 0 1800 2235">
<defs>
</defs>
<rect x="0" y="0" width="1800" height="2235" fill="#f5f5f5" />
<text x="900.0" y="30" font-size="20" text-anchor="middle" font-family="Arial, sans-serif" font-weight="bold" fill="#212121">Gene Review: pedH (Pseudomonas putida KT2440)</text>
<rect x="40" y="100" width="1720" height="35" fill="#e3f2fd" stroke="#bdbdbd" stroke-width="1" rx="5" ry="5" />
<text x="50" y="122.5" font-size="16" font-family="Arial, sans-serif" font-weight="bold" fill="#212121">Molecular Function</text>
<rect x="40" y="1410" width="1720" height="35" fill="#e3f2fd" stroke="#bdbdbd" stroke-width="1" rx="5" ry="5" />
<text x="50" y="1432.5" font-size="16" font-family="Arial, sans-serif" font-weight="bold" fill="#212121">Cellular Component</text>
<rect x="60" y="155" width="220" height="35" fill="#e8f5e9" stroke="#bdbdbd" stroke-width="1" rx="3" ry="3" />
<text x="68" y="176.5" font-size="13" font-family="Arial, sans-serif" fill="#212121">binding</text>
<rect x="60" y="820" width="220" height="35" fill="#e8f5e9" stroke="#bdbdbd" stroke-width="1" rx="3" ry="3" />
<text x="68" y="841.5" font-size="13" font-family="Arial, sans-serif" fill="#212121">catalytic activity</text>
<rect x="60" y="1465" width="220" height="35" fill="#e8f5e9" stroke="#bdbdbd" stroke-width="1" rx="3" ry="3" />
<text x="68" y="1486.5" font-size="13" font-family="Arial, sans-serif" fill="#212121">cellular_component</text>
<rect x="80" y="200" width="200" height="45" fill="#ffffff" stroke="#f44336" stroke-width="2" rx="3" ry="3" />
<text x="85" y="214" font-size="10" font-family="monospace" fill="#666666">GO:0005509</text>
<text x="85" y="230" font-size="11" font-family="Arial, sans-serif" fill="#212121">calcium ion binding</text>
<rect x="80" y="345" width="200" height="45" fill="#ffffff" stroke="#f44336" stroke-width="2" rx="3" ry="3" />
<text x="85" y="359" font-size="10" font-family="monospace" fill="#666666">GO:0020037</text>
<text x="85" y="375" font-size="11" font-family="Arial, sans-serif" fill="#212121">heme binding</text>
<rect x="80" y="490" width="200" height="45" fill="#ffffff" stroke="#4caf50" stroke-width="2" rx="3" ry="3" />
<text x="85" y="504" font-size="10" font-family="monospace" fill="#666666">GO:0046872</text>
<text x="85" y="520" font-size="11" font-family="Arial, sans-serif" fill="#212121">metal ion binding</text>
<rect x="80" y="635" width="200" height="45" fill="#ffffff" stroke="#4caf50" stroke-width="2" rx="3" ry="3" />
<text x="85" y="649" font-size="10" font-family="monospace" fill="#666666">GO:0070968</text>
<text x="85" y="665" font-size="11" font-family="Arial, sans-serif" fill="#212121">pyrroloquinoline quinone binding</text>
<rect x="80" y="865" width="200" height="45" fill="#ffffff" stroke="#795548" stroke-width="2" rx="3" ry="3" />
<text x="85" y="879" font-size="10" font-family="monospace" fill="#666666">GO:0016614</text>
<text x="85" y="895" font-size="11" font-family="Arial, sans-serif" fill="#212121">oxidoreductase activity, acting on ...</text>
<rect x="80" y="1010" width="200" height="45" fill="#ffffff" stroke="#f44336" stroke-width="2" rx="3" ry="3" />
<text x="85" y="1024" font-size="10" font-family="monospace" fill="#666666">GO:0016491</text>
<text x="85" y="1040" font-size="11" font-family="Arial, sans-serif" fill="#212121">oxidoreductase activity</text>
<rect x="80" y="1155" width="200" height="45" fill="#ffffff" stroke="#4caf50" stroke-width="2" rx="3" ry="3" />
<text x="85" y="1169" font-size="10" font-family="monospace" fill="#666666">GO:0052934</text>
<text x="85" y="1185" font-size="11" font-family="Arial, sans-serif" fill="#212121">alcohol dehydrogenase (cytochrome c...</text>
<rect x="80" y="1510" width="200" height="45" fill="#ffffff" stroke="#f44336" stroke-width="2" rx="3" ry="3" />
<text x="85" y="1524" font-size="10" font-family="monospace" fill="#666666">GO:0016020</text>
<text x="85" y="1540" font-size="11" font-family="Arial, sans-serif" fill="#212121">membrane</text>
<rect x="80" y="1655" width="200" height="45" fill="#ffffff" stroke="#f44336" stroke-width="2" rx="3" ry="3" />
<text x="85" y="1669" font-size="10" font-family="monospace" fill="#666666">GO:0030288</text>
<text x="85" y="1685" font-size="11" font-family="Arial, sans-serif" fill="#212121">outer membrane-bounded periplasmic ...</text>
<rect x="80" y="1800" width="200" height="45" fill="#ffffff" stroke="#4caf50" stroke-width="2" rx="3" ry="3" />
<text x="85" y="1814" font-size="10" font-family="monospace" fill="#666666">GO:0042597</text>
<text x="85" y="1830" font-size="11" font-family="Arial, sans-serif" fill="#212121">periplasmic space</text>
<path d="M332,214.5 L348,230.5" stroke="#f44336" stroke-width="3" />
<path d="M332,230.5 L348,214.5" stroke="#f44336" stroke-width="3" />
<path d="M332,1524.5 L348,1540.5" stroke="#f44336" stroke-width="3" />
<path d="M332,1540.5 L348,1524.5" stroke="#f44336" stroke-width="3" />
<circle cx="340" cy="887.5" r="8" fill="none" stroke="#795548" stroke-width="2" />
<path d="M332,1669.5 L348,1685.5" stroke="#f44336" stroke-width="3" />
<path d="M332,1685.5 L348,1669.5" stroke="#f44336" stroke-width="3" />
<path d="M332,1024.5 L348,1040.5" stroke="#f44336" stroke-width="3" />
<path d="M332,1040.5 L348,1024.5" stroke="#f44336" stroke-width="3" />
<path d="M332,359.5 L348,375.5" stroke="#f44336" stroke-width="3" />
<path d="M332,375.5 L348,359.5" stroke="#f44336" stroke-width="3" />
<path d="M332,1822.5 L337,1827.5 L348,1814.5" stroke="#4caf50" stroke-width="3" fill="none" />
<path d="M332,512.5 L337,517.5 L348,504.5" stroke="#4caf50" stroke-width="3" fill="none" />
<path d="M332,1177.5 L337,1182.5 L348,1169.5" stroke="#4caf50" stroke-width="3" fill="none" />
<path d="M332,657.5 L337,662.5 L348,649.5" stroke="#4caf50" stroke-width="3" fill="none" />
<rect x="600.0" y="2095" width="600" height="60" fill="white" stroke="#bdbdbd" stroke-width="1" rx="5" ry="5" />
<text x="620.0" y="2130.0" font-size="16" font-family="Arial, sans-serif" fill="#4caf50">✓</text>
<text x="640.0" y="2130.0" font-size="12" font-family="Arial, sans-serif" fill="#212121">Accept</text>
<text x="715.0" y="2130.0" font-size="16" font-family="Arial, sans-serif" fill="#ff9800">→</text>
<text x="735.0" y="2130.0" font-size="12" font-family="Arial, sans-serif" fill="#212121">Modify</text>
<text x="810.0" y="2130.0" font-size="16" font-family="Arial, sans-serif" fill="#f44336">✗</text>
<text x="830.0" y="2130.0" font-size="12" font-family="Arial, sans-serif" fill="#212121">Remove</text>
<text x="905.0" y="2130.0" font-size="16" font-family="Arial, sans-serif" fill="#ffc107">⚠</text>
<text x="925.0" y="2130.0" font-size="12" font-family="Arial, sans-serif" fill="#212121">Over-annotated</text>
<text x="1000.0" y="2130.0" font-size="16" font-family="Arial, sans-serif" fill="#795548">○</text>
<text x="1020.0" y="2130.0" font-size="12" font-family="Arial, sans-serif" fill="#212121">Non-core</text>
<text x="1095.0" y="2130.0" font-size="16" font-family="Arial, sans-serif" fill="#9e9e9e">?</text>
<text x="1115.0" y="2130.0" font-size="12" font-family="Arial, sans-serif" fill="#212121">Undecided</text>
</svg>