<?xml version="1.0" encoding="UTF-8"?>
<svg xmlns="http://www.w3.org/2000/svg" xmlns:xlink="http://www.w3.org/1999/xlink"
     width="1800" height="1135" viewBox="0 0 1800 1135">
<defs>
</defs>
<rect x="0" y="0" width="1800" height="1135" fill="#f5f5f5" />
<text x="900.0" y="30" font-size="20" text-anchor="middle" font-family="Arial, sans-serif" font-weight="bold" fill="#212121">Gene Review: lrx-1 (Caenorhabditis elegans)</text>
<rect x="40" y="100" width="1720" height="35" fill="#e3f2fd" stroke="#bdbdbd" stroke-width="1" rx="5" ry="5" />
<text x="50" y="122.5" font-size="16" font-family="Arial, sans-serif" font-weight="bold" fill="#212121">Biological Process</text>
<rect x="40" y="455" width="1720" height="35" fill="#e3f2fd" stroke="#bdbdbd" stroke-width="1" rx="5" ry="5" />
<text x="50" y="477.5" font-size="16" font-family="Arial, sans-serif" font-weight="bold" fill="#212121">Cellular Component</text>
<rect x="60" y="155" width="220" height="35" fill="#e8f5e9" stroke="#bdbdbd" stroke-width="1" rx="3" ry="3" />
<text x="68" y="176.5" font-size="13" font-family="Arial, sans-serif" fill="#212121">localization</text>
<rect x="60" y="510" width="220" height="35" fill="#e8f5e9" stroke="#bdbdbd" stroke-width="1" rx="3" ry="3" />
<text x="68" y="531.5" font-size="13" font-family="Arial, sans-serif" fill="#212121">cellular_component</text>
<rect x="80" y="200" width="200" height="45" fill="#ffffff" stroke="#f44336" stroke-width="2" rx="3" ry="3" />
<text x="85" y="214" font-size="10" font-family="monospace" fill="#666666">GO:0016192</text>
<text x="85" y="230" font-size="11" font-family="Arial, sans-serif" fill="#212121">vesicle-mediated transport</text>
<rect x="80" y="555" width="200" height="45" fill="#ffffff" stroke="#f44336" stroke-width="2" rx="3" ry="3" />
<text x="85" y="569" font-size="10" font-family="monospace" fill="#666666">GO:0012505</text>
<text x="85" y="585" font-size="11" font-family="Arial, sans-serif" fill="#212121">endomembrane system</text>
<rect x="80" y="700" width="200" height="45" fill="#ffffff" stroke="#f44336" stroke-width="2" rx="3" ry="3" />
<text x="85" y="714" font-size="10" font-family="monospace" fill="#666666">GO:0016020</text>
<text x="85" y="730" font-size="11" font-family="Arial, sans-serif" fill="#212121">membrane</text>
<path d="M332,569.5 L348,585.5" stroke="#f44336" stroke-width="3" />
<path d="M332,585.5 L348,569.5" stroke="#f44336" stroke-width="3" />
<path d="M332,714.5 L348,730.5" stroke="#f44336" stroke-width="3" />
<path d="M332,730.5 L348,714.5" stroke="#f44336" stroke-width="3" />
<path d="M332,214.5 L348,230.5" stroke="#f44336" stroke-width="3" />
<path d="M332,230.5 L348,214.5" stroke="#f44336" stroke-width="3" />
<rect x="395" y="542.5" width="280" height="70" fill="#fff9c4" stroke="#f9a825" stroke-width="1" rx="3" ry="3" />
<text x="400" y="552.5" font-size="9" font-family="Arial, sans-serif" font-weight="bold" fill="#666666">Reason:</text>
<text x="400" y="562.5" font-size="9" font-family="Arial, sans-serif" fill="#212121">Based on incorrect membrane protein prediction;</text>
<text x="400" y="571.5" font-size="9" font-family="Arial, sans-serif" fill="#212121">bioinformatic analysis suggests secreted protein, not</text>
<text x="400" y="580.5" font-size="9" font-family="Arial, sans-serif" fill="#212121">membrane-bound</text>
<rect x="395" y="687.5" width="280" height="70" fill="#fff9c4" stroke="#f9a825" stroke-width="1" rx="3" ry="3" />
<text x="400" y="697.5" font-size="9" font-family="Arial, sans-serif" font-weight="bold" fill="#666666">Reason:</text>
<text x="400" y="707.5" font-size="9" font-family="Arial, sans-serif" fill="#212121">No strong transmembrane helix detected; weak hydrophobic</text>
<text x="400" y="716.5" font-size="9" font-family="Arial, sans-serif" fill="#212121">regions incompatible with membrane insertion</text>
<rect x="395" y="187.5" width="280" height="70" fill="#fff9c4" stroke="#f9a825" stroke-width="1" rx="3" ry="3" />
<text x="400" y="197.5" font-size="9" font-family="Arial, sans-serif" font-weight="bold" fill="#666666">Reason:</text>
<text x="400" y="207.5" font-size="9" font-family="Arial, sans-serif" fill="#212121">Based on false LDL receptor domain predictions; no</text>
<text x="400" y="216.5" font-size="9" font-family="Arial, sans-serif" fill="#212121">evidence for cargo receptor function</text>
<rect x="600.0" y="995" width="600" height="60" fill="white" stroke="#bdbdbd" stroke-width="1" rx="5" ry="5" />
<text x="620.0" y="1030.0" font-size="16" font-family="Arial, sans-serif" fill="#4caf50">✓</text>
<text x="640.0" y="1030.0" font-size="12" font-family="Arial, sans-serif" fill="#212121">Accept</text>
<text x="715.0" y="1030.0" font-size="16" font-family="Arial, sans-serif" fill="#ff9800">→</text>
<text x="735.0" y="1030.0" font-size="12" font-family="Arial, sans-serif" fill="#212121">Modify</text>
<text x="810.0" y="1030.0" font-size="16" font-family="Arial, sans-serif" fill="#f44336">✗</text>
<text x="830.0" y="1030.0" font-size="12" font-family="Arial, sans-serif" fill="#212121">Remove</text>
<text x="905.0" y="1030.0" font-size="16" font-family="Arial, sans-serif" fill="#ffc107">⚠</text>
<text x="925.0" y="1030.0" font-size="12" font-family="Arial, sans-serif" fill="#212121">Over-annotated</text>
<text x="1000.0" y="1030.0" font-size="16" font-family="Arial, sans-serif" fill="#795548">○</text>
<text x="1020.0" y="1030.0" font-size="12" font-family="Arial, sans-serif" fill="#212121">Non-core</text>
<text x="1095.0" y="1030.0" font-size="16" font-family="Arial, sans-serif" fill="#9e9e9e">?</text>
<text x="1115.0" y="1030.0" font-size="12" font-family="Arial, sans-serif" fill="#212121">Undecided</text>
</svg>