<?xml version="1.0" encoding="UTF-8"?>
<svg xmlns="http://www.w3.org/2000/svg" xmlns:xlink="http://www.w3.org/1999/xlink"
     width="1800" height="2070" viewBox="0 0 1800 2070">
<defs>
</defs>
<rect x="0" y="0" width="1800" height="2070" fill="#f5f5f5" />
<text x="900.0" y="30" font-size="20" text-anchor="middle" font-family="Arial, sans-serif" font-weight="bold" fill="#212121">Gene Review: CFAP418 (Homo sapiens)</text>
<rect x="40" y="100" width="1720" height="35" fill="#e3f2fd" stroke="#bdbdbd" stroke-width="1" rx="5" ry="5" />
<text x="50" y="122.5" font-size="16" font-family="Arial, sans-serif" font-weight="bold" fill="#212121">Biological Process</text>
<rect x="40" y="455" width="1720" height="35" fill="#e3f2fd" stroke="#bdbdbd" stroke-width="1" rx="5" ry="5" />
<text x="50" y="477.5" font-size="16" font-family="Arial, sans-serif" font-weight="bold" fill="#212121">Molecular Function</text>
<rect x="40" y="955" width="1720" height="35" fill="#e3f2fd" stroke="#bdbdbd" stroke-width="1" rx="5" ry="5" />
<text x="50" y="977.5" font-size="16" font-family="Arial, sans-serif" font-weight="bold" fill="#212121">Cellular Component</text>
<rect x="60" y="155" width="220" height="35" fill="#e8f5e9" stroke="#bdbdbd" stroke-width="1" rx="3" ry="3" />
<text x="68" y="176.5" font-size="13" font-family="Arial, sans-serif" fill="#212121">developmental process</text>
<rect x="60" y="510" width="220" height="35" fill="#e8f5e9" stroke="#bdbdbd" stroke-width="1" rx="3" ry="3" />
<text x="68" y="531.5" font-size="13" font-family="Arial, sans-serif" fill="#212121">binding</text>
<rect x="60" y="1010" width="220" height="35" fill="#e8f5e9" stroke="#bdbdbd" stroke-width="1" rx="3" ry="3" />
<text x="68" y="1031.5" font-size="13" font-family="Arial, sans-serif" fill="#212121">cellular_component</text>
<rect x="80" y="200" width="200" height="45" fill="#ffffff" stroke="#ff9800" stroke-width="2" rx="3" ry="3" />
<text x="85" y="214" font-size="10" font-family="monospace" fill="#666666">GO:0008594</text>
<text x="85" y="230" font-size="11" font-family="Arial, sans-serif" fill="#212121">photoreceptor cell morphogenesis</text>
<rect x="80" y="700" width="200" height="45" fill="#ffffff" stroke="#ff9800" stroke-width="2" rx="3" ry="3" />
<text x="85" y="714" font-size="10" font-family="monospace" fill="#666666">GO:0005515</text>
<text x="85" y="730" font-size="11" font-family="Arial, sans-serif" fill="#212121">protein binding</text>
<rect x="80" y="1345" width="200" height="45" fill="#ffffff" stroke="#4caf50" stroke-width="2" rx="3" ry="3" />
<text x="85" y="1359" font-size="10" font-family="monospace" fill="#666666">GO:0001917</text>
<text x="85" y="1375" font-size="11" font-family="Arial, sans-serif" fill="#212121">photoreceptor inner segment</text>
<rect x="80" y="1490" width="200" height="45" fill="#ffffff" stroke="#f44336" stroke-width="2" rx="3" ry="3" />
<text x="85" y="1504" font-size="10" font-family="monospace" fill="#666666">GO:0005737</text>
<text x="85" y="1520" font-size="11" font-family="Arial, sans-serif" fill="#212121">cytoplasm</text>
<rect x="80" y="1635" width="200" height="45" fill="#ffffff" stroke="#4caf50" stroke-width="2" rx="3" ry="3" />
<text x="85" y="1649" font-size="10" font-family="monospace" fill="#666666">GO:0097546</text>
<text x="85" y="1665" font-size="11" font-family="Arial, sans-serif" fill="#212121">ciliary base</text>
<path d="M332,1367.5 L337,1372.5 L348,1359.5" stroke="#4caf50" stroke-width="3" fill="none" />
<path d="M280,1512.5 L390,1512.5" stroke="#ff9800" stroke-width="2" />
<path d="M390,1512.5 L382,1508.5 L382,1516.5 Z" fill="#ff9800" />
<path d="M280,722.5 L390,722.5" stroke="#ff9800" stroke-width="2" />
<path d="M390,722.5 L382,718.5 L382,726.5 Z" fill="#ff9800" />
<rect x="390" y="700" width="200" height="45" fill="#c8e6c9" stroke="#ff9800" stroke-width="2" rx="3" ry="3" />
<text x="395" y="714" font-size="10" font-family="monospace" fill="#666666">GO:0097110</text>
<text x="395" y="730" font-size="11" font-family="Arial, sans-serif" fill="#212121">scaffold protein binding</text>
<path d="M280,222.5 L390,222.5" stroke="#ff9800" stroke-width="2" />
<path d="M390,222.5 L382,218.5 L382,226.5 Z" fill="#ff9800" />
<rect x="390" y="200" width="200" height="45" fill="#c8e6c9" stroke="#ff9800" stroke-width="2" rx="3" ry="3" />
<text x="395" y="214" font-size="10" font-family="monospace" fill="#666666">GO:0035845</text>
<text x="395" y="230" font-size="11" font-family="Arial, sans-serif" fill="#212121">photoreceptor cell outer segment or...</text>
<path d="M332,1504.5 L348,1520.5" stroke="#f44336" stroke-width="3" />
<path d="M332,1520.5 L348,1504.5" stroke="#f44336" stroke-width="3" />
<path d="M332,1657.5 L337,1662.5 L348,1649.5" stroke="#4caf50" stroke-width="3" fill="none" />
<rect x="395" y="1332.5" width="280" height="70" fill="#fff9c4" stroke="#f9a825" stroke-width="1" rx="3" ry="3" />
<text x="400" y="1342.5" font-size="9" font-family="Arial, sans-serif" font-weight="bold" fill="#666666">Reason:</text>
<rect x="645" y="687.5" width="280" height="70" fill="#fff9c4" stroke="#f9a825" stroke-width="1" rx="3" ry="3" />
<text x="650" y="697.5" font-size="9" font-family="Arial, sans-serif" font-weight="bold" fill="#666666">Reason:</text>
<text x="650" y="707.5" font-size="9" font-family="Arial, sans-serif" fill="#212121">PMID:36233334 provides strong experimental evidence for</text>
<text x="650" y="716.5" font-size="9" font-family="Arial, sans-serif" fill="#212121">direct CFAP418-FAM161A interaction through multiple</text>
<text x="650" y="725.5" font-size="9" font-family="Arial, sans-serif" fill="#212121">biochemical assays, demonstrating CFAP418's role as a</text>
<text x="650" y="734.5" font-size="9" font-family="Arial, sans-serif" fill="#212121">ciliary scaffold protein. Bioinformatics analysis reveals</text>
<text x="650" y="743.5" font-size="9" font-family="Arial, sans-serif" fill="#212121">extensive coiled-coil regions (positions 0-259, 273-315,</text>
<text x="650" y="752.5" font-size="9" font-family="Arial, sans-serif" fill="#212121">350-441) supporting its scaffolding function.</text>
<rect x="645" y="187.5" width="280" height="70" fill="#fff9c4" stroke="#f9a825" stroke-width="1" rx="3" ry="3" />
<text x="650" y="197.5" font-size="9" font-family="Arial, sans-serif" font-weight="bold" fill="#666666">Reason:</text>
<text x="650" y="207.5" font-size="9" font-family="Arial, sans-serif" fill="#212121">PMID:22177090 demonstrated that CFAP418 knockout mice</text>
<text x="650" y="216.5" font-size="9" font-family="Arial, sans-serif" fill="#212121">exhibit severe photoreceptor outer segment defects with</text>
<text x="650" y="225.5" font-size="9" font-family="Arial, sans-serif" fill="#212121">disorganized disc morphology, indicating a specific role</text>
<text x="650" y="234.5" font-size="9" font-family="Arial, sans-serif" fill="#212121">in outer segment organization rather than general</text>
<text x="650" y="243.5" font-size="9" font-family="Arial, sans-serif" fill="#212121">morphogenesis.</text>
<rect x="395" y="1622.5" width="280" height="70" fill="#fff9c4" stroke="#f9a825" stroke-width="1" rx="3" ry="3" />
<text x="400" y="1632.5" font-size="9" font-family="Arial, sans-serif" font-weight="bold" fill="#666666">Reason:</text>
<text x="400" y="1642.5" font-size="9" font-family="Arial, sans-serif" fill="#212121">PMID:22177090 provides definitive immunohistochemical</text>
<text x="400" y="1651.5" font-size="9" font-family="Arial, sans-serif" fill="#212121">evidence for CFAP418 localization at ciliary bases in both</text>
<text x="400" y="1660.5" font-size="9" font-family="Arial, sans-serif" fill="#212121">RPE cells and photoreceptors, establishing this as the</text>
<text x="400" y="1669.5" font-size="9" font-family="Arial, sans-serif" fill="#212121">protein's primary functional compartment.</text>
<rect x="950" y="700" width="320" height="85" fill="#e1f5fe" stroke="#0288d1" stroke-width="1" rx="3" ry="3" />
<text x="955" y="710" font-size="8" font-family="monospace" font-weight="bold" fill="#0288d1">[36233334]</text>
<text x="955" y="718" font-size="8" font-family="Arial, sans-serif" fill="#212121">Interactions between C8orf37 and FAM161A, Two Ciliary Proteins</text>
<text x="955" y="727" font-size="8" font-family="Arial, sans-serif" fill="#212121">Essential for Photoreceptor Survival</text>
<rect x="950" y="200" width="320" height="85" fill="#e1f5fe" stroke="#0288d1" stroke-width="1" rx="3" ry="3" />
<text x="955" y="210" font-size="8" font-family="monospace" font-weight="bold" fill="#0288d1">[22177090]</text>
<text x="955" y="218" font-size="8" font-family="Arial, sans-serif" fill="#212121">Immunohistochemical studies revealed C8orf37 localization at the</text>
<text x="955" y="227" font-size="8" font-family="Arial, sans-serif" fill="#212121">base of the primary cilium of human retinal pigment epithelium cells</text>
<rect x="700" y="1635" width="320" height="85" fill="#e1f5fe" stroke="#0288d1" stroke-width="1" rx="3" ry="3" />
<text x="705" y="1645" font-size="8" font-family="monospace" font-weight="bold" fill="#0288d1">[22177090]</text>
<text x="705" y="1653" font-size="8" font-family="Arial, sans-serif" fill="#212121">Immunohistochemical studies revealed C8orf37 localization at the</text>
<text x="705" y="1662" font-size="8" font-family="Arial, sans-serif" fill="#212121">base of the primary cilium of human retinal pigment epithelium cells</text>
<text x="705" y="1671" font-size="8" font-family="Arial, sans-serif" fill="#212121">and at the base of connecting cilia of mouse photoreceptors</text>
<rect x="600.0" y="1930" width="600" height="60" fill="white" stroke="#bdbdbd" stroke-width="1" rx="5" ry="5" />
<text x="620.0" y="1965.0" font-size="16" font-family="Arial, sans-serif" fill="#4caf50">✓</text>
<text x="640.0" y="1965.0" font-size="12" font-family="Arial, sans-serif" fill="#212121">Accept</text>
<text x="715.0" y="1965.0" font-size="16" font-family="Arial, sans-serif" fill="#ff9800">→</text>
<text x="735.0" y="1965.0" font-size="12" font-family="Arial, sans-serif" fill="#212121">Modify</text>
<text x="810.0" y="1965.0" font-size="16" font-family="Arial, sans-serif" fill="#f44336">✗</text>
<text x="830.0" y="1965.0" font-size="12" font-family="Arial, sans-serif" fill="#212121">Remove</text>
<text x="905.0" y="1965.0" font-size="16" font-family="Arial, sans-serif" fill="#ffc107">⚠</text>
<text x="925.0" y="1965.0" font-size="12" font-family="Arial, sans-serif" fill="#212121">Over-annotated</text>
<text x="1000.0" y="1965.0" font-size="16" font-family="Arial, sans-serif" fill="#795548">○</text>
<text x="1020.0" y="1965.0" font-size="12" font-family="Arial, sans-serif" fill="#212121">Non-core</text>
<text x="1095.0" y="1965.0" font-size="16" font-family="Arial, sans-serif" fill="#9e9e9e">?</text>
<text x="1115.0" y="1965.0" font-size="12" font-family="Arial, sans-serif" fill="#212121">Undecided</text>
</svg>