<?xml version="1.0" encoding="UTF-8"?>
<svg xmlns="http://www.w3.org/2000/svg" xmlns:xlink="http://www.w3.org/1999/xlink"
     width="1800" height="2445" viewBox="0 0 1800 2445">
<defs>
</defs>
<rect x="0" y="0" width="1800" height="2445" fill="#f5f5f5" />
<text x="900.0" y="30" font-size="20" text-anchor="middle" font-family="Arial, sans-serif" font-weight="bold" fill="#212121">Gene Review: cbh1 (Trichoderma reesei)</text>
<rect x="40" y="100" width="1720" height="35" fill="#e3f2fd" stroke="#bdbdbd" stroke-width="1" rx="5" ry="5" />
<text x="50" y="122.5" font-size="16" font-family="Arial, sans-serif" font-weight="bold" fill="#212121">Biological Process</text>
<rect x="40" y="890" width="1720" height="35" fill="#e3f2fd" stroke="#bdbdbd" stroke-width="1" rx="5" ry="5" />
<text x="50" y="912.5" font-size="16" font-family="Arial, sans-serif" font-weight="bold" fill="#212121">Molecular Function</text>
<rect x="40" y="1910" width="1720" height="35" fill="#e3f2fd" stroke="#bdbdbd" stroke-width="1" rx="5" ry="5" />
<text x="50" y="1932.5" font-size="16" font-family="Arial, sans-serif" font-weight="bold" fill="#212121">Cellular Component</text>
<rect x="60" y="155" width="220" height="35" fill="#e8f5e9" stroke="#bdbdbd" stroke-width="1" rx="3" ry="3" />
<text x="68" y="176.5" font-size="13" font-family="Arial, sans-serif" fill="#212121">cellular process</text>
<rect x="60" y="945" width="220" height="35" fill="#e8f5e9" stroke="#bdbdbd" stroke-width="1" rx="3" ry="3" />
<text x="68" y="966.5" font-size="13" font-family="Arial, sans-serif" fill="#212121">catalytic activity</text>
<rect x="60" y="1610" width="220" height="35" fill="#e8f5e9" stroke="#bdbdbd" stroke-width="1" rx="3" ry="3" />
<text x="68" y="1631.5" font-size="13" font-family="Arial, sans-serif" fill="#212121">binding</text>
<rect x="60" y="1965" width="220" height="35" fill="#e8f5e9" stroke="#bdbdbd" stroke-width="1" rx="3" ry="3" />
<text x="68" y="1986.5" font-size="13" font-family="Arial, sans-serif" fill="#212121">cellular_component</text>
<rect x="80" y="200" width="200" height="45" fill="#ffffff" stroke="#ff9800" stroke-width="2" rx="3" ry="3" />
<text x="85" y="214" font-size="10" font-family="monospace" fill="#666666">GO:0005975</text>
<text x="85" y="230" font-size="11" font-family="Arial, sans-serif" fill="#212121">carbohydrate metabolic process</text>
<rect x="80" y="345" width="200" height="45" fill="#ffffff" stroke="#ff9800" stroke-width="2" rx="3" ry="3" />
<text x="85" y="359" font-size="10" font-family="monospace" fill="#666666">GO:0000272</text>
<text x="85" y="375" font-size="11" font-family="Arial, sans-serif" fill="#212121">polysaccharide catabolic process</text>
<rect x="80" y="490" width="200" height="45" fill="#ffffff" stroke="#795548" stroke-width="2" rx="3" ry="3" />
<text x="85" y="504" font-size="10" font-family="monospace" fill="#666666">GO:0009251</text>
<text x="85" y="520" font-size="11" font-family="Arial, sans-serif" fill="#212121">glucan catabolic process</text>
<rect x="80" y="635" width="200" height="45" fill="#ffffff" stroke="#4caf50" stroke-width="2" rx="3" ry="3" />
<text x="85" y="649" font-size="10" font-family="monospace" fill="#666666">GO:0030245</text>
<text x="85" y="665" font-size="11" font-family="Arial, sans-serif" fill="#212121">cellulose catabolic process</text>
<rect x="80" y="990" width="200" height="45" fill="#ffffff" stroke="#ff9800" stroke-width="2" rx="3" ry="3" />
<text x="85" y="1004" font-size="10" font-family="monospace" fill="#666666">GO:0004553</text>
<text x="85" y="1020" font-size="11" font-family="Arial, sans-serif" fill="#212121">hydrolase activity, hydrolyzing O-g...</text>
<rect x="80" y="1135" width="200" height="45" fill="#ffffff" stroke="#4caf50" stroke-width="2" rx="3" ry="3" />
<text x="85" y="1149" font-size="10" font-family="monospace" fill="#666666">GO:0016162</text>
<text x="85" y="1165" font-size="11" font-family="Arial, sans-serif" fill="#212121">cellulose 1,4-beta-cellobiosidase a...</text>
<rect x="80" y="1280" width="200" height="45" fill="#ffffff" stroke="#f44336" stroke-width="2" rx="3" ry="3" />
<text x="85" y="1294" font-size="10" font-family="monospace" fill="#666666">GO:0016787</text>
<text x="85" y="1310" font-size="11" font-family="Arial, sans-serif" fill="#212121">hydrolase activity</text>
<rect x="80" y="1425" width="200" height="45" fill="#ffffff" stroke="#f44336" stroke-width="2" rx="3" ry="3" />
<text x="85" y="1439" font-size="10" font-family="monospace" fill="#666666">GO:0016798</text>
<text x="85" y="1455" font-size="11" font-family="Arial, sans-serif" fill="#212121">hydrolase activity, acting on glyco...</text>
<rect x="80" y="1655" width="200" height="45" fill="#ffffff" stroke="#4caf50" stroke-width="2" rx="3" ry="3" />
<text x="85" y="1669" font-size="10" font-family="monospace" fill="#666666">GO:0030248</text>
<text x="85" y="1685" font-size="11" font-family="Arial, sans-serif" fill="#212121">cellulose binding</text>
<rect x="80" y="2010" width="200" height="45" fill="#ffffff" stroke="#4caf50" stroke-width="2" rx="3" ry="3" />
<text x="85" y="2024" font-size="10" font-family="monospace" fill="#666666">GO:0005576</text>
<text x="85" y="2040" font-size="11" font-family="Arial, sans-serif" fill="#212121">extracellular region</text>
<path d="M280,1012.5 L390,1012.5" stroke="#ff9800" stroke-width="2" />
<path d="M390,1012.5 L382,1008.5 L382,1016.5 Z" fill="#ff9800" />
<rect x="390" y="990" width="200" height="45" fill="#c8e6c9" stroke="#ff9800" stroke-width="2" rx="3" ry="3" />
<text x="395" y="1004" font-size="10" font-family="monospace" fill="#666666">GO:0016162</text>
<text x="395" y="1020" font-size="11" font-family="Arial, sans-serif" fill="#212121">cellulose 1,4-beta-cellobiosidase a...</text>
<path d="M332,2032.5 L337,2037.5 L348,2024.5" stroke="#4caf50" stroke-width="3" fill="none" />
<path d="M280,222.5 L390,222.5" stroke="#ff9800" stroke-width="2" />
<path d="M390,222.5 L382,218.5 L382,226.5 Z" fill="#ff9800" />
<rect x="390" y="200" width="200" height="45" fill="#c8e6c9" stroke="#ff9800" stroke-width="2" rx="3" ry="3" />
<text x="395" y="214" font-size="10" font-family="monospace" fill="#666666">GO:0030245</text>
<text x="395" y="230" font-size="11" font-family="Arial, sans-serif" fill="#212121">cellulose catabolic process</text>
<path d="M332,1677.5 L337,1682.5 L348,1669.5" stroke="#4caf50" stroke-width="3" fill="none" />
<path d="M280,367.5 L390,367.5" stroke="#ff9800" stroke-width="2" />
<path d="M390,367.5 L382,363.5 L382,371.5 Z" fill="#ff9800" />
<rect x="390" y="345" width="200" height="45" fill="#c8e6c9" stroke="#ff9800" stroke-width="2" rx="3" ry="3" />
<text x="395" y="359" font-size="10" font-family="monospace" fill="#666666">GO:0030245</text>
<text x="395" y="375" font-size="11" font-family="Arial, sans-serif" fill="#212121">cellulose catabolic process</text>
<circle cx="340" cy="512.5" r="8" fill="none" stroke="#795548" stroke-width="2" />
<path d="M332,1157.5 L337,1162.5 L348,1149.5" stroke="#4caf50" stroke-width="3" fill="none" />
<path d="M332,1294.5 L348,1310.5" stroke="#f44336" stroke-width="3" />
<path d="M332,1310.5 L348,1294.5" stroke="#f44336" stroke-width="3" />
<path d="M332,1439.5 L348,1455.5" stroke="#f44336" stroke-width="3" />
<path d="M332,1455.5 L348,1439.5" stroke="#f44336" stroke-width="3" />
<path d="M332,657.5 L337,662.5 L348,649.5" stroke="#4caf50" stroke-width="3" fill="none" />
<rect x="385" y="1655" width="320" height="85" fill="#e1f5fe" stroke="#0288d1" stroke-width="1" rx="3" ry="3" />
<text x="390" y="1665" font-size="8" font-family="monospace" font-weight="bold" fill="#0288d1">[2554967]</text>
<text x="390" y="1673" font-size="8" font-family="Arial, sans-serif" fill="#212121">Three-dimensional solution structure of the C-terminal domain of</text>
<text x="390" y="1682" font-size="8" font-family="Arial, sans-serif" fill="#212121">cellobiohydrolase I</text>
<rect x="715" y="1655" width="320" height="85" fill="#e1f5fe" stroke="#0288d1" stroke-width="1" rx="3" ry="3" />
<text x="720" y="1665" font-size="8" font-family="monospace" font-weight="bold" fill="#0288d1">[9041630]</text>
<text x="720" y="1673" font-size="8" font-family="Arial, sans-serif" fill="#212121">mutations in the flat face of CBD, which is expected to bind to</text>
<text x="720" y="1682" font-size="8" font-family="Arial, sans-serif" fill="#212121">crystalline</text>
<rect x="385" y="1135" width="320" height="85" fill="#e1f5fe" stroke="#0288d1" stroke-width="1" rx="3" ry="3" />
<text x="390" y="1145" font-size="8" font-family="monospace" font-weight="bold" fill="#0288d1">[8036495]</text>
<text x="390" y="1153" font-size="8" font-family="Arial, sans-serif" fill="#212121">The molecule contains a 40 angstrom long active site tunnel that may</text>
<text x="390" y="1162" font-size="8" font-family="Arial, sans-serif" fill="#212121">account for many of the previously poorly understood macroscopic</text>
<text x="390" y="1171" font-size="8" font-family="Arial, sans-serif" fill="#212121">properties of the enzyme</text>
<rect x="600.0" y="2305" width="600" height="60" fill="white" stroke="#bdbdbd" stroke-width="1" rx="5" ry="5" />
<text x="620.0" y="2340.0" font-size="16" font-family="Arial, sans-serif" fill="#4caf50">✓</text>
<text x="640.0" y="2340.0" font-size="12" font-family="Arial, sans-serif" fill="#212121">Accept</text>
<text x="715.0" y="2340.0" font-size="16" font-family="Arial, sans-serif" fill="#ff9800">→</text>
<text x="735.0" y="2340.0" font-size="12" font-family="Arial, sans-serif" fill="#212121">Modify</text>
<text x="810.0" y="2340.0" font-size="16" font-family="Arial, sans-serif" fill="#f44336">✗</text>
<text x="830.0" y="2340.0" font-size="12" font-family="Arial, sans-serif" fill="#212121">Remove</text>
<text x="905.0" y="2340.0" font-size="16" font-family="Arial, sans-serif" fill="#ffc107">⚠</text>
<text x="925.0" y="2340.0" font-size="12" font-family="Arial, sans-serif" fill="#212121">Over-annotated</text>
<text x="1000.0" y="2340.0" font-size="16" font-family="Arial, sans-serif" fill="#795548">○</text>
<text x="1020.0" y="2340.0" font-size="12" font-family="Arial, sans-serif" fill="#212121">Non-core</text>
<text x="1095.0" y="2340.0" font-size="16" font-family="Arial, sans-serif" fill="#9e9e9e">?</text>
<text x="1115.0" y="2340.0" font-size="12" font-family="Arial, sans-serif" fill="#212121">Undecided</text>
</svg>