<?xml version="1.0" encoding="UTF-8"?>
<svg xmlns="http://www.w3.org/2000/svg" xmlns:xlink="http://www.w3.org/1999/xlink"
     width="1800" height="2240" viewBox="0 0 1800 2240">
<defs>
</defs>
<rect x="0" y="0" width="1800" height="2240" fill="#f5f5f5" />
<text x="900.0" y="30" font-size="20" text-anchor="middle" font-family="Arial, sans-serif" font-weight="bold" fill="#212121">Gene Review: A0B297 (Burkholderia cenocepacia HI2424)</text>
<rect x="40" y="100" width="1720" height="35" fill="#e3f2fd" stroke="#bdbdbd" stroke-width="1" rx="5" ry="5" />
<text x="50" y="122.5" font-size="16" font-family="Arial, sans-serif" font-weight="bold" fill="#212121">Biological Process</text>
<rect x="40" y="600" width="1720" height="35" fill="#e3f2fd" stroke="#bdbdbd" stroke-width="1" rx="5" ry="5" />
<text x="50" y="622.5" font-size="16" font-family="Arial, sans-serif" font-weight="bold" fill="#212121">Molecular Function</text>
<rect x="40" y="1560" width="1720" height="35" fill="#e3f2fd" stroke="#bdbdbd" stroke-width="1" rx="5" ry="5" />
<text x="50" y="1582.5" font-size="16" font-family="Arial, sans-serif" font-weight="bold" fill="#212121">Cellular Component</text>
<rect x="60" y="155" width="220" height="35" fill="#e8f5e9" stroke="#bdbdbd" stroke-width="1" rx="3" ry="3" />
<text x="68" y="176.5" font-size="13" font-family="Arial, sans-serif" fill="#212121">cellular process</text>
<rect x="60" y="655" width="220" height="35" fill="#e8f5e9" stroke="#bdbdbd" stroke-width="1" rx="3" ry="3" />
<text x="68" y="676.5" font-size="13" font-family="Arial, sans-serif" fill="#212121">binding</text>
<rect x="60" y="1030" width="220" height="35" fill="#e8f5e9" stroke="#bdbdbd" stroke-width="1" rx="3" ry="3" />
<text x="68" y="1051.5" font-size="13" font-family="Arial, sans-serif" fill="#212121">catalytic activity</text>
<rect x="60" y="1260" width="220" height="35" fill="#e8f5e9" stroke="#bdbdbd" stroke-width="1" rx="3" ry="3" />
<text x="68" y="1281.5" font-size="13" font-family="Arial, sans-serif" fill="#212121">transporter activity</text>
<rect x="60" y="1615" width="220" height="35" fill="#e8f5e9" stroke="#bdbdbd" stroke-width="1" rx="3" ry="3" />
<text x="68" y="1636.5" font-size="13" font-family="Arial, sans-serif" fill="#212121">anatomical entity</text>
<rect x="80" y="200" width="200" height="45" fill="#ffffff" stroke="#4caf50" stroke-width="2" rx="3" ry="3" />
<text x="85" y="214" font-size="10" font-family="monospace" fill="#666666">GO:0015752</text>
<text x="85" y="230" font-size="11" font-family="Arial, sans-serif" fill="#212121">D-ribose transmembrane transport</text>
<rect x="80" y="345" width="200" height="45" fill="#ffffff" stroke="#4caf50" stroke-width="2" rx="3" ry="3" />
<text x="85" y="359" font-size="10" font-family="monospace" fill="#666666">GO:0015749</text>
<text x="85" y="375" font-size="11" font-family="Arial, sans-serif" fill="#212121">monosaccharide transmembrane transport</text>
<rect x="80" y="700" width="200" height="45" fill="#ffffff" stroke="#4caf50" stroke-width="2" rx="3" ry="3" />
<text x="85" y="714" font-size="10" font-family="monospace" fill="#666666">GO:0005524</text>
<text x="85" y="730" font-size="11" font-family="Arial, sans-serif" fill="#212121">ATP binding</text>
<rect x="80" y="845" width="200" height="45" fill="#ffffff" stroke="#f44336" stroke-width="2" rx="3" ry="3" />
<text x="85" y="859" font-size="10" font-family="monospace" fill="#666666">GO:0000166</text>
<text x="85" y="875" font-size="11" font-family="Arial, sans-serif" fill="#212121">nucleotide binding</text>
<rect x="80" y="1075" width="200" height="45" fill="#ffffff" stroke="#4caf50" stroke-width="2" rx="3" ry="3" />
<text x="85" y="1089" font-size="10" font-family="monospace" fill="#666666">GO:0016887</text>
<text x="85" y="1105" font-size="11" font-family="Arial, sans-serif" fill="#212121">ATP hydrolysis activity</text>
<rect x="80" y="1305" width="200" height="45" fill="#ffffff" stroke="#ff9800" stroke-width="2" rx="3" ry="3" />
<text x="85" y="1319" font-size="10" font-family="monospace" fill="#666666">GO:0015611</text>
<text x="85" y="1335" font-size="11" font-family="Arial, sans-serif" fill="#212121">ABC-type D-ribose transporter activity</text>
<rect x="80" y="1660" width="200" height="45" fill="#ffffff" stroke="#4caf50" stroke-width="2" rx="3" ry="3" />
<text x="85" y="1674" font-size="10" font-family="monospace" fill="#666666">GO:0005886</text>
<text x="85" y="1690" font-size="11" font-family="Arial, sans-serif" fill="#212121">plasma membrane</text>
<rect x="80" y="1805" width="200" height="45" fill="#ffffff" stroke="#f44336" stroke-width="2" rx="3" ry="3" />
<text x="85" y="1819" font-size="10" font-family="monospace" fill="#666666">GO:0016020</text>
<text x="85" y="1835" font-size="11" font-family="Arial, sans-serif" fill="#212121">membrane</text>
<path d="M332,222.5 L337,227.5 L348,214.5" stroke="#4caf50" stroke-width="3" fill="none" />
<path d="M332,722.5 L337,727.5 L348,714.5" stroke="#4caf50" stroke-width="3" fill="none" />
<path d="M332,1097.5 L337,1102.5 L348,1089.5" stroke="#4caf50" stroke-width="3" fill="none" />
<path d="M332,859.5 L348,875.5" stroke="#f44336" stroke-width="3" />
<path d="M332,875.5 L348,859.5" stroke="#f44336" stroke-width="3" />
<path d="M332,1682.5 L337,1687.5 L348,1674.5" stroke="#4caf50" stroke-width="3" fill="none" />
<path d="M280,1327.5 L390,1327.5" stroke="#ff9800" stroke-width="2" />
<path d="M390,1327.5 L382,1323.5 L382,1331.5 Z" fill="#ff9800" />
<rect x="390" y="1305" width="200" height="45" fill="#c8e6c9" stroke="#ff9800" stroke-width="2" rx="3" ry="3" />
<text x="395" y="1319" font-size="10" font-family="monospace" fill="#666666">GO:0015407</text>
<text x="395" y="1335" font-size="11" font-family="Arial, sans-serif" fill="#212121">ABC-type monosaccharide transporter...</text>
<path d="M332,367.5 L337,372.5 L348,359.5" stroke="#4caf50" stroke-width="3" fill="none" />
<path d="M332,1819.5 L348,1835.5" stroke="#f44336" stroke-width="3" />
<path d="M332,1835.5 L348,1819.5" stroke="#f44336" stroke-width="3" />
<rect x="600.0" y="2100" width="600" height="60" fill="white" stroke="#bdbdbd" stroke-width="1" rx="5" ry="5" />
<text x="620.0" y="2135.0" font-size="16" font-family="Arial, sans-serif" fill="#4caf50">✓</text>
<text x="640.0" y="2135.0" font-size="12" font-family="Arial, sans-serif" fill="#212121">Accept</text>
<text x="715.0" y="2135.0" font-size="16" font-family="Arial, sans-serif" fill="#ff9800">→</text>
<text x="735.0" y="2135.0" font-size="12" font-family="Arial, sans-serif" fill="#212121">Modify</text>
<text x="810.0" y="2135.0" font-size="16" font-family="Arial, sans-serif" fill="#f44336">✗</text>
<text x="830.0" y="2135.0" font-size="12" font-family="Arial, sans-serif" fill="#212121">Remove</text>
<text x="905.0" y="2135.0" font-size="16" font-family="Arial, sans-serif" fill="#ffc107">⚠</text>
<text x="925.0" y="2135.0" font-size="12" font-family="Arial, sans-serif" fill="#212121">Over-annotated</text>
<text x="1000.0" y="2135.0" font-size="16" font-family="Arial, sans-serif" fill="#795548">○</text>
<text x="1020.0" y="2135.0" font-size="12" font-family="Arial, sans-serif" fill="#212121">Non-core</text>
<text x="1095.0" y="2135.0" font-size="16" font-family="Arial, sans-serif" fill="#9e9e9e">?</text>
<text x="1115.0" y="2135.0" font-size="12" font-family="Arial, sans-serif" fill="#212121">Undecided</text>
</svg>