<?xml version="1.0" encoding="UTF-8"?>
<svg xmlns="http://www.w3.org/2000/svg" xmlns:xlink="http://www.w3.org/1999/xlink"
     width="1800" height="2030" viewBox="0 0 1800 2030">
<defs>
</defs>
<rect x="0" y="0" width="1800" height="2030" fill="#f5f5f5" />
<text x="900.0" y="30" font-size="20" text-anchor="middle" font-family="Arial, sans-serif" font-weight="bold" fill="#212121">Gene Review: nifA (Azotobacter vinelandii)</text>
<rect x="40" y="100" width="1720" height="35" fill="#e3f2fd" stroke="#bdbdbd" stroke-width="1" rx="5" ry="5" />
<text x="50" y="122.5" font-size="16" font-family="Arial, sans-serif" font-weight="bold" fill="#212121">Biological Process</text>
<rect x="40" y="830" width="1720" height="35" fill="#e3f2fd" stroke="#bdbdbd" stroke-width="1" rx="5" ry="5" />
<text x="50" y="852.5" font-size="16" font-family="Arial, sans-serif" font-weight="bold" fill="#212121">Molecular Function</text>
<rect x="60" y="155" width="220" height="35" fill="#e8f5e9" stroke="#bdbdbd" stroke-width="1" rx="3" ry="3" />
<text x="68" y="176.5" font-size="13" font-family="Arial, sans-serif" fill="#212121">biological regulation</text>
<rect x="60" y="385" width="220" height="35" fill="#e8f5e9" stroke="#bdbdbd" stroke-width="1" rx="3" ry="3" />
<text x="68" y="406.5" font-size="13" font-family="Arial, sans-serif" fill="#212121">cellular process</text>
<rect x="60" y="885" width="220" height="35" fill="#e8f5e9" stroke="#bdbdbd" stroke-width="1" rx="3" ry="3" />
<text x="68" y="906.5" font-size="13" font-family="Arial, sans-serif" fill="#212121">transcription regulator activity</text>
<rect x="60" y="1115" width="220" height="35" fill="#e8f5e9" stroke="#bdbdbd" stroke-width="1" rx="3" ry="3" />
<text x="68" y="1136.5" font-size="13" font-family="Arial, sans-serif" fill="#212121">binding</text>
<rect x="80" y="200" width="200" height="45" fill="#ffffff" stroke="#ff9800" stroke-width="2" rx="3" ry="3" />
<text x="85" y="214" font-size="10" font-family="monospace" fill="#666666">GO:0006355</text>
<text x="85" y="230" font-size="11" font-family="Arial, sans-serif" fill="#212121">regulation of DNA-templated transcr...</text>
<rect x="80" y="430" width="200" height="45" fill="#ffffff" stroke="#ff9800" stroke-width="2" rx="3" ry="3" />
<text x="85" y="444" font-size="10" font-family="monospace" fill="#666666">GO:0009399</text>
<text x="85" y="460" font-size="11" font-family="Arial, sans-serif" fill="#212121">nitrogen fixation</text>
<rect x="80" y="575" width="200" height="45" fill="#ffffff" stroke="#f44336" stroke-width="2" rx="3" ry="3" />
<text x="85" y="589" font-size="10" font-family="monospace" fill="#666666">GO:0000160</text>
<text x="85" y="605" font-size="11" font-family="Arial, sans-serif" fill="#212121">phosphorelay signal transduction sy...</text>
<rect x="80" y="930" width="200" height="45" fill="#ffffff" stroke="#ff9800" stroke-width="2" rx="3" ry="3" />
<text x="85" y="944" font-size="10" font-family="monospace" fill="#666666">GO:0003700</text>
<text x="85" y="960" font-size="11" font-family="Arial, sans-serif" fill="#212121">DNA-binding transcription factor ac...</text>
<rect x="80" y="1160" width="200" height="45" fill="#ffffff" stroke="#4caf50" stroke-width="2" rx="3" ry="3" />
<text x="85" y="1174" font-size="10" font-family="monospace" fill="#666666">GO:0005524</text>
<text x="85" y="1190" font-size="11" font-family="Arial, sans-serif" fill="#212121">ATP binding</text>
<rect x="80" y="1305" width="200" height="45" fill="#ffffff" stroke="#4caf50" stroke-width="2" rx="3" ry="3" />
<text x="85" y="1319" font-size="10" font-family="monospace" fill="#666666">GO:0043565</text>
<text x="85" y="1335" font-size="11" font-family="Arial, sans-serif" fill="#212121">sequence-specific DNA binding</text>
<rect x="80" y="1450" width="200" height="45" fill="#ffffff" stroke="#ffc107" stroke-width="2" rx="3" ry="3" />
<text x="85" y="1464" font-size="10" font-family="monospace" fill="#666666">GO:0000166</text>
<text x="85" y="1480" font-size="11" font-family="Arial, sans-serif" fill="#212121">nucleotide binding</text>
<rect x="80" y="1595" width="200" height="45" fill="#ffffff" stroke="#ffc107" stroke-width="2" rx="3" ry="3" />
<text x="85" y="1609" font-size="10" font-family="monospace" fill="#666666">GO:0003677</text>
<text x="85" y="1625" font-size="11" font-family="Arial, sans-serif" fill="#212121">DNA binding</text>
<path d="M280,952.5 L390,952.5" stroke="#ff9800" stroke-width="2" />
<path d="M390,952.5 L382,948.5 L382,956.5 Z" fill="#ff9800" />
<rect x="390" y="930" width="200" height="45" fill="#c8e6c9" stroke="#ff9800" stroke-width="2" rx="3" ry="3" />
<text x="395" y="944" font-size="10" font-family="monospace" fill="#666666">GO:0001216</text>
<text x="395" y="960" font-size="11" font-family="Arial, sans-serif" fill="#212121">DNA-binding transcription activator...</text>
<path d="M332,1182.5 L337,1187.5 L348,1174.5" stroke="#4caf50" stroke-width="3" fill="none" />
<path d="M280,222.5 L390,222.5" stroke="#ff9800" stroke-width="2" />
<path d="M390,222.5 L382,218.5 L382,226.5 Z" fill="#ff9800" />
<rect x="390" y="200" width="200" height="45" fill="#c8e6c9" stroke="#ff9800" stroke-width="2" rx="3" ry="3" />
<text x="395" y="214" font-size="10" font-family="monospace" fill="#666666">GO:0045893</text>
<text x="395" y="230" font-size="11" font-family="Arial, sans-serif" fill="#212121">positive regulation of DNA-template...</text>
<path d="M280,452.5 L390,452.5" stroke="#ff9800" stroke-width="2" />
<path d="M390,452.5 L382,448.5 L382,456.5 Z" fill="#ff9800" />
<rect x="390" y="430" width="200" height="45" fill="#c8e6c9" stroke="#ff9800" stroke-width="2" rx="3" ry="3" />
<text x="395" y="444" font-size="10" font-family="monospace" fill="#666666">GO:1903316</text>
<text x="395" y="460" font-size="11" font-family="Arial, sans-serif" fill="#212121">positive regulation of nitrogen cyc...</text>
<path d="M332,1327.5 L337,1332.5 L348,1319.5" stroke="#4caf50" stroke-width="3" fill="none" />
<path d="M332,589.5 L348,605.5" stroke="#f44336" stroke-width="3" />
<path d="M332,605.5 L348,589.5" stroke="#f44336" stroke-width="3" />
<path d="M340,1462.5 L330,1480.5 L350,1480.5 Z" fill="#ffc107" />
<text x="340" y="1476.5" font-size="14" text-anchor="middle" font-family="Arial, sans-serif" font-weight="bold" fill="white">!</text>
<path d="M340,1607.5 L330,1625.5 L350,1625.5 Z" fill="#ffc107" />
<text x="340" y="1621.5" font-size="14" text-anchor="middle" font-family="Arial, sans-serif" font-weight="bold" fill="white">!</text>
<rect x="600.0" y="1890" width="600" height="60" fill="white" stroke="#bdbdbd" stroke-width="1" rx="5" ry="5" />
<text x="620.0" y="1925.0" font-size="16" font-family="Arial, sans-serif" fill="#4caf50">✓</text>
<text x="640.0" y="1925.0" font-size="12" font-family="Arial, sans-serif" fill="#212121">Accept</text>
<text x="715.0" y="1925.0" font-size="16" font-family="Arial, sans-serif" fill="#ff9800">→</text>
<text x="735.0" y="1925.0" font-size="12" font-family="Arial, sans-serif" fill="#212121">Modify</text>
<text x="810.0" y="1925.0" font-size="16" font-family="Arial, sans-serif" fill="#f44336">✗</text>
<text x="830.0" y="1925.0" font-size="12" font-family="Arial, sans-serif" fill="#212121">Remove</text>
<text x="905.0" y="1925.0" font-size="16" font-family="Arial, sans-serif" fill="#ffc107">⚠</text>
<text x="925.0" y="1925.0" font-size="12" font-family="Arial, sans-serif" fill="#212121">Over-annotated</text>
<text x="1000.0" y="1925.0" font-size="16" font-family="Arial, sans-serif" fill="#795548">○</text>
<text x="1020.0" y="1925.0" font-size="12" font-family="Arial, sans-serif" fill="#212121">Non-core</text>
<text x="1095.0" y="1925.0" font-size="16" font-family="Arial, sans-serif" fill="#9e9e9e">?</text>
<text x="1115.0" y="1925.0" font-size="12" font-family="Arial, sans-serif" fill="#212121">Undecided</text>
</svg>