<?xml version="1.0" encoding="UTF-8"?>
<svg xmlns="http://www.w3.org/2000/svg" xmlns:xlink="http://www.w3.org/1999/xlink"
     width="1800" height="6095" viewBox="0 0 1800 6095">
<defs>
</defs>
<rect x="0" y="0" width="1800" height="6095" fill="#f5f5f5" />
<text x="900.0" y="30" font-size="20" text-anchor="middle" font-family="Arial, sans-serif" font-weight="bold" fill="#212121">Gene Review: UBA7 (Homo sapiens)</text>
<rect x="40" y="100" width="1720" height="35" fill="#e3f2fd" stroke="#bdbdbd" stroke-width="1" rx="5" ry="5" />
<text x="50" y="122.5" font-size="16" font-family="Arial, sans-serif" font-weight="bold" fill="#212121">Biological Process</text>
<rect x="40" y="1930" width="1720" height="35" fill="#e3f2fd" stroke="#bdbdbd" stroke-width="1" rx="5" ry="5" />
<text x="50" y="1952.5" font-size="16" font-family="Arial, sans-serif" font-weight="bold" fill="#212121">Molecular Function</text>
<rect x="40" y="4400" width="1720" height="35" fill="#e3f2fd" stroke="#bdbdbd" stroke-width="1" rx="5" ry="5" />
<text x="50" y="4422.5" font-size="16" font-family="Arial, sans-serif" font-weight="bold" fill="#212121">Cellular Component</text>
<rect x="60" y="155" width="220" height="35" fill="#e8f5e9" stroke="#bdbdbd" stroke-width="1" rx="3" ry="3" />
<text x="68" y="176.5" font-size="13" font-family="Arial, sans-serif" fill="#212121">cellular process</text>
<rect x="60" y="1255" width="220" height="35" fill="#e8f5e9" stroke="#bdbdbd" stroke-width="1" rx="3" ry="3" />
<text x="68" y="1276.5" font-size="13" font-family="Arial, sans-serif" fill="#212121">immune system process</text>
<rect x="60" y="1630" width="220" height="35" fill="#e8f5e9" stroke="#bdbdbd" stroke-width="1" rx="3" ry="3" />
<text x="68" y="1651.5" font-size="13" font-family="Arial, sans-serif" fill="#212121">response to stimulus</text>
<rect x="60" y="1985" width="220" height="35" fill="#e8f5e9" stroke="#bdbdbd" stroke-width="1" rx="3" ry="3" />
<text x="68" y="2006.5" font-size="13" font-family="Arial, sans-serif" fill="#212121">catalytic activity</text>
<rect x="60" y="3085" width="220" height="35" fill="#e8f5e9" stroke="#bdbdbd" stroke-width="1" rx="3" ry="3" />
<text x="68" y="3106.5" font-size="13" font-family="Arial, sans-serif" fill="#212121">binding</text>
<rect x="60" y="4455" width="220" height="35" fill="#e8f5e9" stroke="#bdbdbd" stroke-width="1" rx="3" ry="3" />
<text x="68" y="4476.5" font-size="13" font-family="Arial, sans-serif" fill="#212121">anatomical entity</text>
<rect x="80" y="1070" width="200" height="45" fill="#ffffff" stroke="#4caf50" stroke-width="2" rx="3" ry="3" />
<text x="85" y="1084" font-size="10" font-family="monospace" fill="#666666">GO:0032020</text>
<text x="85" y="1100" font-size="11" font-family="Arial, sans-serif" fill="#212121">ISG15-protein conjugation</text>
<rect x="80" y="345" width="200" height="45" fill="#ffffff" stroke="#795548" stroke-width="2" rx="3" ry="3" />
<text x="85" y="359" font-size="10" font-family="monospace" fill="#666666">GO:0019941</text>
<text x="85" y="375" font-size="11" font-family="Arial, sans-serif" fill="#212121">modification-dependent protein cata...</text>
<rect x="80" y="635" width="200" height="45" fill="#ffffff" stroke="#ff9800" stroke-width="2" rx="3" ry="3" />
<text x="85" y="649" font-size="10" font-family="monospace" fill="#666666">GO:0016567</text>
<text x="85" y="665" font-size="11" font-family="Arial, sans-serif" fill="#212121">protein ubiquitination</text>
<rect x="80" y="1445" width="200" height="45" fill="#ffffff" stroke="#4caf50" stroke-width="2" rx="3" ry="3" />
<text x="85" y="1459" font-size="10" font-family="monospace" fill="#666666">GO:0045087</text>
<text x="85" y="1475" font-size="11" font-family="Arial, sans-serif" fill="#212121">innate immune response</text>
<rect x="80" y="1675" width="200" height="45" fill="#ffffff" stroke="#4caf50" stroke-width="2" rx="3" ry="3" />
<text x="85" y="1689" font-size="10" font-family="monospace" fill="#666666">GO:0006974</text>
<text x="85" y="1705" font-size="11" font-family="Arial, sans-serif" fill="#212121">DNA damage response</text>
<rect x="80" y="2900" width="200" height="45" fill="#ffffff" stroke="#4caf50" stroke-width="2" rx="3" ry="3" />
<text x="85" y="2914" font-size="10" font-family="monospace" fill="#666666">GO:0019782</text>
<text x="85" y="2930" font-size="11" font-family="Arial, sans-serif" fill="#212121">ISG15 activating enzyme activity</text>
<rect x="80" y="2175" width="200" height="45" fill="#ffffff" stroke="#ff9800" stroke-width="2" rx="3" ry="3" />
<text x="85" y="2189" font-size="10" font-family="monospace" fill="#666666">GO:0008641</text>
<text x="85" y="2205" font-size="11" font-family="Arial, sans-serif" fill="#212121">ubiquitin-like modifier activating ...</text>
<rect x="80" y="2320" width="200" height="45" fill="#ffffff" stroke="#ff9800" stroke-width="2" rx="3" ry="3" />
<text x="85" y="2334" font-size="10" font-family="monospace" fill="#666666">GO:0016874</text>
<text x="85" y="2350" font-size="11" font-family="Arial, sans-serif" fill="#212121">ligase activity</text>
<rect x="80" y="2755" width="200" height="45" fill="#ffffff" stroke="#ff9800" stroke-width="2" rx="3" ry="3" />
<text x="85" y="2769" font-size="10" font-family="monospace" fill="#666666">GO:0004842</text>
<text x="85" y="2785" font-size="11" font-family="Arial, sans-serif" fill="#212121">ubiquitin-protein transferase activity</text>
<rect x="80" y="3130" width="200" height="45" fill="#ffffff" stroke="#ff9800" stroke-width="2" rx="3" ry="3" />
<text x="85" y="3144" font-size="10" font-family="monospace" fill="#666666">GO:0000166</text>
<text x="85" y="3160" font-size="11" font-family="Arial, sans-serif" fill="#212121">nucleotide binding</text>
<rect x="80" y="3275" width="200" height="45" fill="#ffffff" stroke="#4caf50" stroke-width="2" rx="3" ry="3" />
<text x="85" y="3289" font-size="10" font-family="monospace" fill="#666666">GO:0005524</text>
<text x="85" y="3305" font-size="11" font-family="Arial, sans-serif" fill="#212121">ATP binding</text>
<rect x="80" y="4145" width="200" height="45" fill="#ffffff" stroke="#f44336" stroke-width="2" rx="3" ry="3" />
<text x="85" y="4159" font-size="10" font-family="monospace" fill="#666666">GO:0005515</text>
<text x="85" y="4175" font-size="11" font-family="Arial, sans-serif" fill="#212121">protein binding</text>
<rect x="80" y="4935" width="200" height="45" fill="#ffffff" stroke="#4caf50" stroke-width="2" rx="3" ry="3" />
<text x="85" y="4949" font-size="10" font-family="monospace" fill="#666666">GO:0005737</text>
<text x="85" y="4965" font-size="11" font-family="Arial, sans-serif" fill="#212121">cytoplasm</text>
<rect x="80" y="4645" width="200" height="45" fill="#ffffff" stroke="#4caf50" stroke-width="2" rx="3" ry="3" />
<text x="85" y="4659" font-size="10" font-family="monospace" fill="#666666">GO:0005634</text>
<text x="85" y="4675" font-size="11" font-family="Arial, sans-serif" fill="#212121">nucleus</text>
<rect x="80" y="5080" width="200" height="45" fill="#ffffff" stroke="#4caf50" stroke-width="2" rx="3" ry="3" />
<text x="85" y="5094" font-size="10" font-family="monospace" fill="#666666">GO:0005654</text>
<text x="85" y="5110" font-size="11" font-family="Arial, sans-serif" fill="#212121">nucleoplasm</text>
<rect x="80" y="5660" width="200" height="45" fill="#ffffff" stroke="#4caf50" stroke-width="2" rx="3" ry="3" />
<text x="85" y="5674" font-size="10" font-family="monospace" fill="#666666">GO:0005829</text>
<text x="85" y="5690" font-size="11" font-family="Arial, sans-serif" fill="#212121">cytosol</text>
<path d="M332,4957.5 L337,4962.5 L348,4949.5" stroke="#4caf50" stroke-width="3" fill="none" />
<path d="M332,2922.5 L337,2927.5 L348,2914.5" stroke="#4caf50" stroke-width="3" fill="none" />
<path d="M332,1092.5 L337,1097.5 L348,1084.5" stroke="#4caf50" stroke-width="3" fill="none" />
<path d="M332,1467.5 L337,1472.5 L348,1459.5" stroke="#4caf50" stroke-width="3" fill="none" />
<path d="M332,1697.5 L337,1702.5 L348,1689.5" stroke="#4caf50" stroke-width="3" fill="none" />
<path d="M280,2197.5 L390,2197.5" stroke="#ff9800" stroke-width="2" />
<path d="M390,2197.5 L382,2193.5 L382,2201.5 Z" fill="#ff9800" />
<rect x="390" y="2175" width="200" height="45" fill="#c8e6c9" stroke="#ff9800" stroke-width="2" rx="3" ry="3" />
<text x="395" y="2189" font-size="10" font-family="monospace" fill="#666666">GO:0019782</text>
<text x="395" y="2205" font-size="11" font-family="Arial, sans-serif" fill="#212121">ISG15 activating enzyme activity</text>
<path d="M280,3152.5 L390,3152.5" stroke="#ff9800" stroke-width="2" />
<path d="M390,3152.5 L382,3148.5 L382,3156.5 Z" fill="#ff9800" />
<rect x="390" y="3130" width="200" height="45" fill="#c8e6c9" stroke="#ff9800" stroke-width="2" rx="3" ry="3" />
<text x="395" y="3144" font-size="10" font-family="monospace" fill="#666666">GO:0005524</text>
<text x="395" y="3160" font-size="11" font-family="Arial, sans-serif" fill="#212121">ATP binding</text>
<path d="M332,3297.5 L337,3302.5 L348,3289.5" stroke="#4caf50" stroke-width="3" fill="none" />
<path d="M332,4667.5 L337,4672.5 L348,4659.5" stroke="#4caf50" stroke-width="3" fill="none" />
<path d="M280,2342.5 L390,2342.5" stroke="#ff9800" stroke-width="2" />
<path d="M390,2342.5 L382,2338.5 L382,2346.5 Z" fill="#ff9800" />
<rect x="390" y="2320" width="200" height="45" fill="#c8e6c9" stroke="#ff9800" stroke-width="2" rx="3" ry="3" />
<text x="395" y="2334" font-size="10" font-family="monospace" fill="#666666">GO:0019782</text>
<text x="395" y="2350" font-size="11" font-family="Arial, sans-serif" fill="#212121">ISG15 activating enzyme activity</text>
<path d="M332,4159.5 L348,4175.5" stroke="#f44336" stroke-width="3" />
<path d="M332,4175.5 L348,4159.5" stroke="#f44336" stroke-width="3" />
<circle cx="340" cy="367.5" r="8" fill="none" stroke="#795548" stroke-width="2" />
<path d="M280,2777.5 L390,2777.5" stroke="#ff9800" stroke-width="2" />
<path d="M390,2777.5 L382,2773.5 L382,2781.5 Z" fill="#ff9800" />
<rect x="390" y="2755" width="200" height="45" fill="#c8e6c9" stroke="#ff9800" stroke-width="2" rx="3" ry="3" />
<text x="395" y="2769" font-size="10" font-family="monospace" fill="#666666">GO:0019782</text>
<text x="395" y="2785" font-size="11" font-family="Arial, sans-serif" fill="#212121">ISG15 activating enzyme activity</text>
<path d="M280,657.5 L390,657.5" stroke="#ff9800" stroke-width="2" />
<path d="M390,657.5 L382,653.5 L382,661.5 Z" fill="#ff9800" />
<rect x="390" y="635" width="200" height="45" fill="#c8e6c9" stroke="#ff9800" stroke-width="2" rx="3" ry="3" />
<text x="395" y="649" font-size="10" font-family="monospace" fill="#666666">GO:0032020</text>
<text x="395" y="665" font-size="11" font-family="Arial, sans-serif" fill="#212121">ISG15-protein conjugation</text>
<path d="M332,5102.5 L337,5107.5 L348,5094.5" stroke="#4caf50" stroke-width="3" fill="none" />
<path d="M332,5682.5 L337,5687.5 L348,5674.5" stroke="#4caf50" stroke-width="3" fill="none" />
<rect x="395" y="4922.5" width="280" height="70" fill="#fff9c4" stroke="#f9a825" stroke-width="1" rx="3" ry="3" />
<text x="400" y="4932.5" font-size="9" font-family="Arial, sans-serif" font-weight="bold" fill="#666666">Reason:</text>
<text x="400" y="4942.5" font-size="9" font-family="Arial, sans-serif" fill="#212121">Strong experimental evidence for cytoplasmic localization.</text>
<text x="400" y="4951.5" font-size="9" font-family="Arial, sans-serif" fill="#212121">The paper demonstrates UBA7/UBE1L localization and its</text>
<text x="400" y="4960.5" font-size="9" font-family="Arial, sans-serif" fill="#212121">functional relevance in the cytoplasm.</text>
<rect x="395" y="2887.5" width="280" height="70" fill="#fff9c4" stroke="#f9a825" stroke-width="1" rx="3" ry="3" />
<text x="400" y="2897.5" font-size="9" font-family="Arial, sans-serif" font-weight="bold" fill="#666666">Reason:</text>
<text x="400" y="2907.5" font-size="9" font-family="Arial, sans-serif" fill="#212121">Strong direct experimental evidence for ISG15 activating</text>
<text x="400" y="2916.5" font-size="9" font-family="Arial, sans-serif" fill="#212121">enzyme activity. The paper demonstrates UBA7/UBE1L</text>
<text x="400" y="2925.5" font-size="9" font-family="Arial, sans-serif" fill="#212121">activates ISG15 and transfers it to the E2 enzyme.</text>
<rect x="395" y="1057.5" width="280" height="70" fill="#fff9c4" stroke="#f9a825" stroke-width="1" rx="3" ry="3" />
<text x="400" y="1067.5" font-size="9" font-family="Arial, sans-serif" font-weight="bold" fill="#666666">Reason:</text>
<text x="400" y="1077.5" font-size="9" font-family="Arial, sans-serif" fill="#212121">Strong experimental evidence for ISGylation. The paper</text>
<text x="400" y="1086.5" font-size="9" font-family="Arial, sans-serif" fill="#212121">directly demonstrates UBA7's essential role in</text>
<text x="400" y="1095.5" font-size="9" font-family="Arial, sans-serif" fill="#212121">ISG15-protein conjugation.</text>
<rect x="395" y="1432.5" width="280" height="70" fill="#fff9c4" stroke="#f9a825" stroke-width="1" rx="3" ry="3" />
<text x="400" y="1442.5" font-size="9" font-family="Arial, sans-serif" font-weight="bold" fill="#666666">Reason:</text>
<text x="400" y="1452.5" font-size="9" font-family="Arial, sans-serif" fill="#212121">Strong experimental evidence for role in innate immunity.</text>
<text x="400" y="1461.5" font-size="9" font-family="Arial, sans-serif" fill="#212121">The paper directly demonstrates ISGylation's role in</text>
<text x="400" y="1470.5" font-size="9" font-family="Arial, sans-serif" fill="#212121">antiviral defense and interferon signaling.</text>
<rect x="395" y="1662.5" width="280" height="70" fill="#fff9c4" stroke="#f9a825" stroke-width="1" rx="3" ry="3" />
<text x="400" y="1672.5" font-size="9" font-family="Arial, sans-serif" font-weight="bold" fill="#666666">Reason:</text>
<text x="400" y="1682.5" font-size="9" font-family="Arial, sans-serif" fill="#212121">Valid annotation supported by literature. UBA7-mediated</text>
<text x="400" y="1691.5" font-size="9" font-family="Arial, sans-serif" fill="#212121">ISGylation of p53 occurs in response to DNA damage and</text>
<text x="400" y="1700.5" font-size="9" font-family="Arial, sans-serif" fill="#212121">modulates p53 activity, contributing to the cellular DNA</text>
<text x="400" y="1709.5" font-size="9" font-family="Arial, sans-serif" fill="#212121">damage response.</text>
<rect x="645" y="2162.5" width="280" height="70" fill="#fff9c4" stroke="#f9a825" stroke-width="1" rx="3" ry="3" />
<text x="650" y="2172.5" font-size="9" font-family="Arial, sans-serif" font-weight="bold" fill="#666666">Reason:</text>
<text x="650" y="2182.5" font-size="9" font-family="Arial, sans-serif" fill="#212121">While technically correct, this annotation is too general.</text>
<text x="650" y="2191.5" font-size="9" font-family="Arial, sans-serif" fill="#212121">UBA7 specifically activates ISG15, not other</text>
<text x="650" y="2200.5" font-size="9" font-family="Arial, sans-serif" fill="#212121">ubiquitin-like modifiers. The more specific term</text>
<text x="650" y="2209.5" font-size="9" font-family="Arial, sans-serif" fill="#212121">GO:0019782 (ISG15 activating enzyme activity) better</text>
<text x="650" y="2218.5" font-size="9" font-family="Arial, sans-serif" fill="#212121">captures UBA7's molecular function.</text>
<rect x="645" y="3117.5" width="280" height="70" fill="#fff9c4" stroke="#f9a825" stroke-width="1" rx="3" ry="3" />
<text x="650" y="3127.5" font-size="9" font-family="Arial, sans-serif" font-weight="bold" fill="#666666">Reason:</text>
<text x="650" y="3137.5" font-size="9" font-family="Arial, sans-serif" fill="#212121">While UBA7 does bind nucleotides, specifically ATP is</text>
<text x="650" y="3146.5" font-size="9" font-family="Arial, sans-serif" fill="#212121">required for its enzymatic function. The more specific</text>
<text x="650" y="3155.5" font-size="9" font-family="Arial, sans-serif" fill="#212121">GO:0005524 (ATP binding) annotation is already present and</text>
<text x="650" y="3164.5" font-size="9" font-family="Arial, sans-serif" fill="#212121">more informative.</text>
<rect x="395" y="3262.5" width="280" height="70" fill="#fff9c4" stroke="#f9a825" stroke-width="1" rx="3" ry="3" />
<text x="400" y="3272.5" font-size="9" font-family="Arial, sans-serif" font-weight="bold" fill="#666666">Reason:</text>
<text x="400" y="3282.5" font-size="9" font-family="Arial, sans-serif" fill="#212121">Core molecular function. ATP binding is mechanistically</text>
<text x="400" y="3291.5" font-size="9" font-family="Arial, sans-serif" fill="#212121">required for UBA7's E1 enzyme activity - it uses ATP to</text>
<text x="400" y="3300.5" font-size="9" font-family="Arial, sans-serif" fill="#212121">adenylate ISG15's C-terminus before thioester bond</text>
<text x="400" y="3309.5" font-size="9" font-family="Arial, sans-serif" fill="#212121">formation. This is well-documented in structural and</text>
<text x="400" y="3318.5" font-size="9" font-family="Arial, sans-serif" fill="#212121">biochemical studies.</text>
<rect x="395" y="4632.5" width="280" height="70" fill="#fff9c4" stroke="#f9a825" stroke-width="1" rx="3" ry="3" />
<text x="400" y="4642.5" font-size="9" font-family="Arial, sans-serif" font-weight="bold" fill="#666666">Reason:</text>
<text x="400" y="4652.5" font-size="9" font-family="Arial, sans-serif" fill="#212121">Valid cellular component annotation. UBA7 is present in</text>
<text x="400" y="4661.5" font-size="9" font-family="Arial, sans-serif" fill="#212121">the nucleus where it modifies nuclear substrates like p53.</text>
<text x="400" y="4670.5" font-size="9" font-family="Arial, sans-serif" fill="#212121">The nuclear localization is experimentally validated and</text>
<text x="400" y="4679.5" font-size="9" font-family="Arial, sans-serif" fill="#212121">functionally relevant for ISGylation of nuclear proteins.</text>
<rect x="645" y="2307.5" width="280" height="70" fill="#fff9c4" stroke="#f9a825" stroke-width="1" rx="3" ry="3" />
<text x="650" y="2317.5" font-size="9" font-family="Arial, sans-serif" font-weight="bold" fill="#666666">Reason:</text>
<text x="650" y="2327.5" font-size="9" font-family="Arial, sans-serif" fill="#212121">While UBA7 does have ligase activity (forms thioester</text>
<text x="650" y="2336.5" font-size="9" font-family="Arial, sans-serif" fill="#212121">bonds), this term is too general. The specific ISG15</text>
<text x="650" y="2345.5" font-size="9" font-family="Arial, sans-serif" fill="#212121">activating enzyme activity (GO:0019782) more accurately</text>
<text x="650" y="2354.5" font-size="9" font-family="Arial, sans-serif" fill="#212121">describes UBA7's molecular function.</text>
<rect x="395" y="4132.5" width="280" height="70" fill="#fff9c4" stroke="#f9a825" stroke-width="1" rx="3" ry="3" />
<text x="400" y="4142.5" font-size="9" font-family="Arial, sans-serif" font-weight="bold" fill="#666666">Reason:</text>
<text x="400" y="4152.5" font-size="9" font-family="Arial, sans-serif" fill="#212121">Uninformative generic annotation that doesn't specify</text>
<text x="400" y="4161.5" font-size="9" font-family="Arial, sans-serif" fill="#212121">which proteins or functional significance. UBA7's specific</text>
<text x="400" y="4170.5" font-size="9" font-family="Arial, sans-serif" fill="#212121">enzymatic interactions are already captured.</text>
<rect x="395" y="332.5" width="280" height="70" fill="#fff9c4" stroke="#f9a825" stroke-width="1" rx="3" ry="3" />
<text x="400" y="342.5" font-size="9" font-family="Arial, sans-serif" font-weight="bold" fill="#666666">Reason:</text>
<text x="400" y="352.5" font-size="9" font-family="Arial, sans-serif" fill="#212121">Valid but non-core function. While ISGylation by UBA7 can</text>
<text x="400" y="361.5" font-size="9" font-family="Arial, sans-serif" fill="#212121">target some proteins for degradation, this is a downstream</text>
<text x="400" y="370.5" font-size="9" font-family="Arial, sans-serif" fill="#212121">consequence rather than the primary function. The core</text>
<text x="400" y="379.5" font-size="9" font-family="Arial, sans-serif" fill="#212121">function is ISG15 activation and conjugation.</text>
<rect x="645" y="2742.5" width="280" height="70" fill="#fff9c4" stroke="#f9a825" stroke-width="1" rx="3" ry="3" />
<text x="650" y="2752.5" font-size="9" font-family="Arial, sans-serif" font-weight="bold" fill="#666666">Reason:</text>
<text x="650" y="2762.5" font-size="9" font-family="Arial, sans-serif" fill="#212121">Misannotation. The cited paper explicitly states</text>
<text x="650" y="2771.5" font-size="9" font-family="Arial, sans-serif" fill="#212121">UBA7/UbE1L is the ISG15 E1 activating enzyme, not an E2/E3</text>
<text x="650" y="2780.5" font-size="9" font-family="Arial, sans-serif" fill="#212121">transferase. It should be annotated with ISG15 activating</text>
<text x="650" y="2789.5" font-size="9" font-family="Arial, sans-serif" fill="#212121">enzyme activity.</text>
<rect x="645" y="622.5" width="280" height="70" fill="#fff9c4" stroke="#f9a825" stroke-width="1" rx="3" ry="3" />
<text x="650" y="632.5" font-size="9" font-family="Arial, sans-serif" font-weight="bold" fill="#666666">Reason:</text>
<text x="650" y="642.5" font-size="9" font-family="Arial, sans-serif" fill="#212121">Wrong process. UBA7 specifically mediates ISG15-protein</text>
<text x="650" y="651.5" font-size="9" font-family="Arial, sans-serif" fill="#212121">conjugation (ISGylation), not protein ubiquitination. In</text>
<text x="650" y="660.5" font-size="9" font-family="Arial, sans-serif" fill="#212121">mammals, UBA7 cannot activate ubiquitin, only ISG15.</text>
<rect x="395" y="5067.5" width="280" height="70" fill="#fff9c4" stroke="#f9a825" stroke-width="1" rx="3" ry="3" />
<text x="400" y="5077.5" font-size="9" font-family="Arial, sans-serif" font-weight="bold" fill="#666666">Reason:</text>
<text x="400" y="5087.5" font-size="9" font-family="Arial, sans-serif" fill="#212121">Valid cellular component annotation from curated Reactome</text>
<text x="400" y="5096.5" font-size="9" font-family="Arial, sans-serif" fill="#212121">pathway. UBA7 is present in the nucleoplasm where it</text>
<text x="400" y="5105.5" font-size="9" font-family="Arial, sans-serif" fill="#212121">modifies nuclear proteins. This is consistent with</text>
<text x="400" y="5114.5" font-size="9" font-family="Arial, sans-serif" fill="#212121">experimental evidence of nuclear localization.</text>
<rect x="395" y="5647.5" width="280" height="70" fill="#fff9c4" stroke="#f9a825" stroke-width="1" rx="3" ry="3" />
<text x="400" y="5657.5" font-size="9" font-family="Arial, sans-serif" font-weight="bold" fill="#666666">Reason:</text>
<text x="400" y="5667.5" font-size="9" font-family="Arial, sans-serif" fill="#212121">Consistent with other curated annotations placing UBA7 in</text>
<text x="400" y="5676.5" font-size="9" font-family="Arial, sans-serif" fill="#212121">cytosol for ISGylation reactions.</text>
<rect x="700" y="4935" width="320" height="85" fill="#e1f5fe" stroke="#0288d1" stroke-width="1" rx="3" ry="3" />
<text x="705" y="4945" font-size="8" font-family="monospace" font-weight="bold" fill="#0288d1">[29743376]</text>
<text x="705" y="4953" font-size="8" font-family="Arial, sans-serif" fill="#212121">colocalization of pUL50 with UBE1L was observed in cells treated</text>
<text x="705" y="4962" font-size="8" font-family="Arial, sans-serif" fill="#212121">with a proteasome inhibitor</text>
<rect x="700" y="2900" width="320" height="85" fill="#e1f5fe" stroke="#0288d1" stroke-width="1" rx="3" ry="3" />
<text x="705" y="2910" font-size="8" font-family="monospace" font-weight="bold" fill="#0288d1">[16428300]</text>
<text x="705" y="2918" font-size="8" font-family="Arial, sans-serif" fill="#212121">UBE1L and UbcH8 have been reported to function as E1 and E2 enzymes,</text>
<text x="705" y="2927" font-size="8" font-family="Arial, sans-serif" fill="#212121">respectively, for ISG15 conjugation</text>
<rect x="700" y="1070" width="320" height="85" fill="#e1f5fe" stroke="#0288d1" stroke-width="1" rx="3" ry="3" />
<text x="705" y="1080" font-size="8" font-family="monospace" font-weight="bold" fill="#0288d1">[16428300]</text>
<text x="705" y="1088" font-size="8" font-family="Arial, sans-serif" fill="#212121">ISG15 conjugation to the UbcH6 ubiquitin E2 enzyme</text>
<rect x="700" y="1445" width="320" height="85" fill="#e1f5fe" stroke="#0288d1" stroke-width="1" rx="3" ry="3" />
<text x="705" y="1455" font-size="8" font-family="monospace" font-weight="bold" fill="#0288d1">[28724761]</text>
<text x="705" y="1463" font-size="8" font-family="Arial, sans-serif" fill="#212121">ISG15 Modulates Type I Interferon Signaling and the Antiviral</text>
<text x="705" y="1472" font-size="8" font-family="Arial, sans-serif" fill="#212121">Response during Hepatitis E Virus Replication</text>
<rect x="700" y="3275" width="320" height="85" fill="#e1f5fe" stroke="#0288d1" stroke-width="1" rx="3" ry="3" />
<text x="705" y="3285" font-size="8" font-family="monospace" font-weight="bold" fill="#0288d1">[16428300]</text>
<text x="705" y="3293" font-size="8" font-family="Arial, sans-serif" fill="#212121">ISG15 is considered to be covalently conjugated to cellular proteins</text>
<text x="705" y="3302" font-size="8" font-family="Arial, sans-serif" fill="#212121">through a sequential reaction similar to that of the ubiquitin</text>
<text x="705" y="3311" font-size="8" font-family="Arial, sans-serif" fill="#212121">conjugation system consisting of E1/E2/E3 enzymes</text>
<rect x="700" y="4645" width="320" height="85" fill="#e1f5fe" stroke="#0288d1" stroke-width="1" rx="3" ry="3" />
<text x="705" y="4655" font-size="8" font-family="monospace" font-weight="bold" fill="#0288d1">[29743376]</text>
<text x="705" y="4663" font-size="8" font-family="Arial, sans-serif" fill="#212121">pUL50 interacted with UBE1L, an E1-activating enzyme for ISGylation</text>
<rect x="950" y="2755" width="320" height="85" fill="#e1f5fe" stroke="#0288d1" stroke-width="1" rx="3" ry="3" />
<text x="955" y="2765" font-size="8" font-family="monospace" font-weight="bold" fill="#0288d1">[19073728]</text>
<text x="955" y="2773" font-size="8" font-family="Arial, sans-serif" fill="#212121">the importance of UbE1L was confirmed by demonstrating that mice</text>
<text x="955" y="2782" font-size="8" font-family="Arial, sans-serif" fill="#212121">lacking this ISG15 E1 enzyme were highly susceptible to Sindbis</text>
<text x="955" y="2791" font-size="8" font-family="Arial, sans-serif" fill="#212121">virus infection</text>
<rect x="600.0" y="5955" width="600" height="60" fill="white" stroke="#bdbdbd" stroke-width="1" rx="5" ry="5" />
<text x="620.0" y="5990.0" font-size="16" font-family="Arial, sans-serif" fill="#4caf50">✓</text>
<text x="640.0" y="5990.0" font-size="12" font-family="Arial, sans-serif" fill="#212121">Accept</text>
<text x="715.0" y="5990.0" font-size="16" font-family="Arial, sans-serif" fill="#ff9800">→</text>
<text x="735.0" y="5990.0" font-size="12" font-family="Arial, sans-serif" fill="#212121">Modify</text>
<text x="810.0" y="5990.0" font-size="16" font-family="Arial, sans-serif" fill="#f44336">✗</text>
<text x="830.0" y="5990.0" font-size="12" font-family="Arial, sans-serif" fill="#212121">Remove</text>
<text x="905.0" y="5990.0" font-size="16" font-family="Arial, sans-serif" fill="#ffc107">⚠</text>
<text x="925.0" y="5990.0" font-size="12" font-family="Arial, sans-serif" fill="#212121">Over-annotated</text>
<text x="1000.0" y="5990.0" font-size="16" font-family="Arial, sans-serif" fill="#795548">○</text>
<text x="1020.0" y="5990.0" font-size="12" font-family="Arial, sans-serif" fill="#212121">Non-core</text>
<text x="1095.0" y="5990.0" font-size="16" font-family="Arial, sans-serif" fill="#9e9e9e">?</text>
<text x="1115.0" y="5990.0" font-size="12" font-family="Arial, sans-serif" fill="#212121">Undecided</text>
</svg>