<?xml version="1.0" encoding="UTF-8"?>
<svg xmlns="http://www.w3.org/2000/svg" xmlns:xlink="http://www.w3.org/1999/xlink"
     width="1800" height="2325" viewBox="0 0 1800 2325">
<defs>
</defs>
<rect x="0" y="0" width="1800" height="2325" fill="#f5f5f5" />
<text x="900.0" y="30" font-size="20" text-anchor="middle" font-family="Arial, sans-serif" font-weight="bold" fill="#212121">Gene Review: Agaphelin (Anopheles gambiae)</text>
<rect x="40" y="100" width="1720" height="35" fill="#e3f2fd" stroke="#bdbdbd" stroke-width="1" rx="5" ry="5" />
<text x="50" y="122.5" font-size="16" font-family="Arial, sans-serif" font-weight="bold" fill="#212121">Biological Process</text>
<rect x="40" y="685" width="1720" height="35" fill="#e3f2fd" stroke="#bdbdbd" stroke-width="1" rx="5" ry="5" />
<text x="50" y="707.5" font-size="16" font-family="Arial, sans-serif" font-weight="bold" fill="#212121">Molecular Function</text>
<rect x="40" y="1790" width="1720" height="35" fill="#e3f2fd" stroke="#bdbdbd" stroke-width="1" rx="5" ry="5" />
<text x="50" y="1812.5" font-size="16" font-family="Arial, sans-serif" font-weight="bold" fill="#212121">Cellular Component</text>
<rect x="60" y="155" width="220" height="35" fill="#e8f5e9" stroke="#bdbdbd" stroke-width="1" rx="3" ry="3" />
<text x="68" y="176.5" font-size="13" font-family="Arial, sans-serif" fill="#212121">biological process involved in inters...</text>
<rect x="60" y="385" width="220" height="35" fill="#e8f5e9" stroke="#bdbdbd" stroke-width="1" rx="3" ry="3" />
<text x="68" y="406.5" font-size="13" font-family="Arial, sans-serif" fill="#212121">multicellular organismal process</text>
<rect x="60" y="740" width="220" height="35" fill="#e8f5e9" stroke="#bdbdbd" stroke-width="1" rx="3" ry="3" />
<text x="68" y="761.5" font-size="13" font-family="Arial, sans-serif" fill="#212121">molecular function regulator activity</text>
<rect x="60" y="1260" width="220" height="35" fill="#e8f5e9" stroke="#bdbdbd" stroke-width="1" rx="3" ry="3" />
<text x="68" y="1281.5" font-size="13" font-family="Arial, sans-serif" fill="#212121">toxin activity</text>
<rect x="60" y="1490" width="220" height="35" fill="#e8f5e9" stroke="#bdbdbd" stroke-width="1" rx="3" ry="3" />
<text x="68" y="1511.5" font-size="13" font-family="Arial, sans-serif" fill="#212121">binding</text>
<rect x="60" y="1845" width="220" height="35" fill="#e8f5e9" stroke="#bdbdbd" stroke-width="1" rx="3" ry="3" />
<text x="68" y="1866.5" font-size="13" font-family="Arial, sans-serif" fill="#212121">anatomical entity</text>
<rect x="80" y="200" width="200" height="45" fill="#ffffff" stroke="#4caf50" stroke-width="2" rx="3" ry="3" />
<text x="85" y="214" font-size="10" font-family="monospace" fill="#666666">GO:0035821</text>
<text x="85" y="230" font-size="11" font-family="Arial, sans-serif" fill="#212121">modulation of process of another or...</text>
<rect x="80" y="430" width="200" height="45" fill="#ffffff" stroke="#4caf50" stroke-width="2" rx="3" ry="3" />
<text x="85" y="444" font-size="10" font-family="monospace" fill="#666666">GO:0140106</text>
<text x="85" y="460" font-size="11" font-family="Arial, sans-serif" fill="#212121">hematophagy</text>
<rect x="80" y="785" width="200" height="45" fill="#ffffff" stroke="#4caf50" stroke-width="2" rx="3" ry="3" />
<text x="85" y="799" font-size="10" font-family="monospace" fill="#666666">GO:0004867</text>
<text x="85" y="815" font-size="11" font-family="Arial, sans-serif" fill="#212121">serine-type endopeptidase inhibitor...</text>
<rect x="80" y="1075" width="200" height="45" fill="#ffffff" stroke="#ff9800" stroke-width="2" rx="3" ry="3" />
<text x="85" y="1089" font-size="10" font-family="monospace" fill="#666666">GO:0030414</text>
<text x="85" y="1105" font-size="11" font-family="Arial, sans-serif" fill="#212121">peptidase inhibitor activity</text>
<rect x="80" y="1305" width="200" height="45" fill="#ffffff" stroke="#4caf50" stroke-width="2" rx="3" ry="3" />
<text x="85" y="1319" font-size="10" font-family="monospace" fill="#666666">GO:0090729</text>
<text x="85" y="1335" font-size="11" font-family="Arial, sans-serif" fill="#212121">toxin activity</text>
<rect x="80" y="1535" width="200" height="45" fill="#ffffff" stroke="#f44336" stroke-width="2" rx="3" ry="3" />
<text x="85" y="1549" font-size="10" font-family="monospace" fill="#666666">GO:0005515</text>
<text x="85" y="1565" font-size="11" font-family="Arial, sans-serif" fill="#212121">protein binding</text>
<rect x="80" y="1890" width="200" height="45" fill="#ffffff" stroke="#4caf50" stroke-width="2" rx="3" ry="3" />
<text x="85" y="1904" font-size="10" font-family="monospace" fill="#666666">GO:0005576</text>
<text x="85" y="1920" font-size="11" font-family="Arial, sans-serif" fill="#212121">extracellular region</text>
<path d="M332,222.5 L337,227.5 L348,214.5" stroke="#4caf50" stroke-width="3" fill="none" />
<path d="M332,807.5 L337,812.5 L348,799.5" stroke="#4caf50" stroke-width="3" fill="none" />
<path d="M332,1912.5 L337,1917.5 L348,1904.5" stroke="#4caf50" stroke-width="3" fill="none" />
<circle cx="340" cy="1097.5" r="8" fill="none" stroke="#795548" stroke-width="2" />
<path d="M332,1327.5 L337,1332.5 L348,1319.5" stroke="#4caf50" stroke-width="3" fill="none" />
<path d="M332,452.5 L337,457.5 L348,444.5" stroke="#4caf50" stroke-width="3" fill="none" />
<path d="M332,1549.5 L348,1565.5" stroke="#f44336" stroke-width="3" />
<path d="M332,1565.5 L348,1549.5" stroke="#f44336" stroke-width="3" />
<path d="M280,1097.5 L390,1097.5" stroke="#ff9800" stroke-width="2" />
<path d="M390,1097.5 L382,1093.5 L382,1101.5 Z" fill="#ff9800" />
<rect x="390" y="1075" width="200" height="45" fill="#c8e6c9" stroke="#ff9800" stroke-width="2" rx="3" ry="3" />
<text x="395" y="1089" font-size="10" font-family="monospace" fill="#666666">GO:0004867</text>
<text x="395" y="1105" font-size="11" font-family="Arial, sans-serif" fill="#212121">serine-type endopeptidase inhibitor...</text>
<rect x="385" y="430" width="320" height="85" fill="#e1f5fe" stroke="#0288d1" stroke-width="1" rx="3" ry="3" />
<text x="390" y="440" font-size="8" font-family="monospace" font-weight="bold" fill="#0288d1">[25211214]</text>
<text x="390" y="448" font-size="8" font-family="Arial, sans-serif" fill="#212121">Blockade of neutrophil elastase emerges as a novel antihemostatic</text>
<text x="390" y="457" font-size="8" font-family="Arial, sans-serif" fill="#212121">mechanism in hematophagy</text>
<rect x="600.0" y="2185" width="600" height="60" fill="white" stroke="#bdbdbd" stroke-width="1" rx="5" ry="5" />
<text x="620.0" y="2220.0" font-size="16" font-family="Arial, sans-serif" fill="#4caf50">✓</text>
<text x="640.0" y="2220.0" font-size="12" font-family="Arial, sans-serif" fill="#212121">Accept</text>
<text x="715.0" y="2220.0" font-size="16" font-family="Arial, sans-serif" fill="#ff9800">→</text>
<text x="735.0" y="2220.0" font-size="12" font-family="Arial, sans-serif" fill="#212121">Modify</text>
<text x="810.0" y="2220.0" font-size="16" font-family="Arial, sans-serif" fill="#f44336">✗</text>
<text x="830.0" y="2220.0" font-size="12" font-family="Arial, sans-serif" fill="#212121">Remove</text>
<text x="905.0" y="2220.0" font-size="16" font-family="Arial, sans-serif" fill="#ffc107">⚠</text>
<text x="925.0" y="2220.0" font-size="12" font-family="Arial, sans-serif" fill="#212121">Over-annotated</text>
<text x="1000.0" y="2220.0" font-size="16" font-family="Arial, sans-serif" fill="#795548">○</text>
<text x="1020.0" y="2220.0" font-size="12" font-family="Arial, sans-serif" fill="#212121">Non-core</text>
<text x="1095.0" y="2220.0" font-size="16" font-family="Arial, sans-serif" fill="#9e9e9e">?</text>
<text x="1115.0" y="2220.0" font-size="12" font-family="Arial, sans-serif" fill="#212121">Undecided</text>
</svg>