<?xml version="1.0" encoding="UTF-8"?>
<svg xmlns="http://www.w3.org/2000/svg" xmlns:xlink="http://www.w3.org/1999/xlink"
     width="1800" height="1510" viewBox="0 0 1800 1510">
<defs>
</defs>
<rect x="0" y="0" width="1800" height="1510" fill="#f5f5f5" />
<text x="900.0" y="30" font-size="20" text-anchor="middle" font-family="Arial, sans-serif" font-weight="bold" fill="#212121">Gene Review: SFT2D3 (Homo sapiens)</text>
<rect x="40" y="100" width="1720" height="35" fill="#e3f2fd" stroke="#bdbdbd" stroke-width="1" rx="5" ry="5" />
<text x="50" y="122.5" font-size="16" font-family="Arial, sans-serif" font-weight="bold" fill="#212121">Biological Process</text>
<rect x="40" y="685" width="1720" height="35" fill="#e3f2fd" stroke="#bdbdbd" stroke-width="1" rx="5" ry="5" />
<text x="50" y="707.5" font-size="16" font-family="Arial, sans-serif" font-weight="bold" fill="#212121">Cellular Component</text>
<rect x="60" y="155" width="220" height="35" fill="#e8f5e9" stroke="#bdbdbd" stroke-width="1" rx="3" ry="3" />
<text x="68" y="176.5" font-size="13" font-family="Arial, sans-serif" fill="#212121">cellular process</text>
<rect x="60" y="385" width="220" height="35" fill="#e8f5e9" stroke="#bdbdbd" stroke-width="1" rx="3" ry="3" />
<text x="68" y="406.5" font-size="13" font-family="Arial, sans-serif" fill="#212121">localization</text>
<rect x="60" y="740" width="220" height="35" fill="#e8f5e9" stroke="#bdbdbd" stroke-width="1" rx="3" ry="3" />
<text x="68" y="761.5" font-size="13" font-family="Arial, sans-serif" fill="#212121">cellular_component</text>
<rect x="80" y="200" width="200" height="45" fill="#ffffff" stroke="#4caf50" stroke-width="2" rx="3" ry="3" />
<text x="85" y="214" font-size="10" font-family="monospace" fill="#666666">GO:0016192</text>
<text x="85" y="230" font-size="11" font-family="Arial, sans-serif" fill="#212121">vesicle-mediated transport</text>
<rect x="80" y="430" width="200" height="45" fill="#ffffff" stroke="#ff9800" stroke-width="2" rx="3" ry="3" />
<text x="85" y="444" font-size="10" font-family="monospace" fill="#666666">GO:0015031</text>
<text x="85" y="460" font-size="11" font-family="Arial, sans-serif" fill="#212121">protein transport</text>
<rect x="80" y="785" width="200" height="45" fill="#ffffff" stroke="#4caf50" stroke-width="2" rx="3" ry="3" />
<text x="85" y="799" font-size="10" font-family="monospace" fill="#666666">GO:0016020</text>
<text x="85" y="815" font-size="11" font-family="Arial, sans-serif" fill="#212121">membrane</text>
<rect x="80" y="930" width="200" height="45" fill="#ffffff" stroke="#ff9800" stroke-width="2" rx="3" ry="3" />
<text x="85" y="944" font-size="10" font-family="monospace" fill="#666666">GO:0005737</text>
<text x="85" y="960" font-size="11" font-family="Arial, sans-serif" fill="#212121">cytoplasm</text>
<rect x="80" y="1075" width="200" height="45" fill="#ffffff" stroke="#4caf50" stroke-width="2" rx="3" ry="3" />
<text x="85" y="1089" font-size="10" font-family="monospace" fill="#666666">GO:0012505</text>
<text x="85" y="1105" font-size="11" font-family="Arial, sans-serif" fill="#212121">endomembrane system</text>
<path d="M332,807.5 L337,812.5 L348,799.5" stroke="#4caf50" stroke-width="3" fill="none" />
<path d="M332,222.5 L337,227.5 L348,214.5" stroke="#4caf50" stroke-width="3" fill="none" />
<path d="M280,952.5 L390,952.5" stroke="#ff9800" stroke-width="2" />
<path d="M390,952.5 L382,948.5 L382,956.5 Z" fill="#ff9800" />
<rect x="390" y="930" width="200" height="45" fill="#c8e6c9" stroke="#ff9800" stroke-width="2" rx="3" ry="3" />
<text x="395" y="944" font-size="10" font-family="monospace" fill="#666666">GO:0005794</text>
<text x="395" y="960" font-size="11" font-family="Arial, sans-serif" fill="#212121">Golgi apparatus</text>
<path d="M332,1097.5 L337,1102.5 L348,1089.5" stroke="#4caf50" stroke-width="3" fill="none" />
<path d="M280,452.5 L390,452.5" stroke="#ff9800" stroke-width="2" />
<path d="M390,452.5 L382,448.5 L382,456.5 Z" fill="#ff9800" />
<rect x="390" y="430" width="200" height="45" fill="#c8e6c9" stroke="#ff9800" stroke-width="2" rx="3" ry="3" />
<text x="395" y="444" font-size="10" font-family="monospace" fill="#666666">GO:0042147</text>
<text x="395" y="460" font-size="11" font-family="Arial, sans-serif" fill="#212121">retrograde transport, endosome to G...</text>
<rect x="385" y="785" width="320" height="85" fill="#e1f5fe" stroke="#0288d1" stroke-width="1" rx="3" ry="3" />
<text x="390" y="795" font-size="8" font-family="monospace" font-weight="bold" fill="#0288d1">[GO:0000120]</text>
<text x="390" y="803" font-size="8" font-family="Arial, sans-serif" fill="#212121">[Automated annotation combining multiple methods including</text>
<text x="390" y="812" font-size="8" font-family="Arial, sans-serif" fill="#212121">transmembrane prediction, domain analysis, and ortholog inference]</text>
<rect x="385" y="200" width="320" height="85" fill="#e1f5fe" stroke="#0288d1" stroke-width="1" rx="3" ry="3" />
<text x="390" y="210" font-size="8" font-family="monospace" font-weight="bold" fill="#0288d1">[GO:0000002]</text>
<text x="390" y="218" font-size="8" font-family="Arial, sans-serif" fill="#212121">[InterPro domain mapping - Got1/Sft2 family (IPR004178) associated</text>
<text x="390" y="227" font-size="8" font-family="Arial, sans-serif" fill="#212121">with vesicle transport]</text>
<rect x="635" y="930" width="320" height="85" fill="#e1f5fe" stroke="#0288d1" stroke-width="1" rx="3" ry="3" />
<text x="640" y="940" font-size="8" font-family="monospace" font-weight="bold" fill="#0288d1">[GO:0000117]</text>
<text x="640" y="948" font-size="8" font-family="Arial, sans-serif" fill="#212121">[ARBA machine learning prediction based on sequence features and</text>
<text x="640" y="957" font-size="8" font-family="Arial, sans-serif" fill="#212121">domain architecture]</text>
<rect x="385" y="1075" width="320" height="85" fill="#e1f5fe" stroke="#0288d1" stroke-width="1" rx="3" ry="3" />
<text x="390" y="1085" font-size="8" font-family="monospace" font-weight="bold" fill="#0288d1">[GO:0000117]</text>
<text x="390" y="1093" font-size="8" font-family="Arial, sans-serif" fill="#212121">[ARBA machine learning prediction based on sequence features and</text>
<text x="390" y="1102" font-size="8" font-family="Arial, sans-serif" fill="#212121">domain architecture]</text>
<rect x="635" y="430" width="320" height="85" fill="#e1f5fe" stroke="#0288d1" stroke-width="1" rx="3" ry="3" />
<text x="640" y="440" font-size="8" font-family="monospace" font-weight="bold" fill="#0288d1">[GO:0000043]</text>
<text x="640" y="448" font-size="8" font-family="Arial, sans-serif" fill="#212121">[UniProtKB keyword mapping based on curated keywords and functional</text>
<text x="640" y="457" font-size="8" font-family="Arial, sans-serif" fill="#212121">annotation]</text>
<rect x="600.0" y="1370" width="600" height="60" fill="white" stroke="#bdbdbd" stroke-width="1" rx="5" ry="5" />
<text x="620.0" y="1405.0" font-size="16" font-family="Arial, sans-serif" fill="#4caf50">✓</text>
<text x="640.0" y="1405.0" font-size="12" font-family="Arial, sans-serif" fill="#212121">Accept</text>
<text x="715.0" y="1405.0" font-size="16" font-family="Arial, sans-serif" fill="#ff9800">→</text>
<text x="735.0" y="1405.0" font-size="12" font-family="Arial, sans-serif" fill="#212121">Modify</text>
<text x="810.0" y="1405.0" font-size="16" font-family="Arial, sans-serif" fill="#f44336">✗</text>
<text x="830.0" y="1405.0" font-size="12" font-family="Arial, sans-serif" fill="#212121">Remove</text>
<text x="905.0" y="1405.0" font-size="16" font-family="Arial, sans-serif" fill="#ffc107">⚠</text>
<text x="925.0" y="1405.0" font-size="12" font-family="Arial, sans-serif" fill="#212121">Over-annotated</text>
<text x="1000.0" y="1405.0" font-size="16" font-family="Arial, sans-serif" fill="#795548">○</text>
<text x="1020.0" y="1405.0" font-size="12" font-family="Arial, sans-serif" fill="#212121">Non-core</text>
<text x="1095.0" y="1405.0" font-size="16" font-family="Arial, sans-serif" fill="#9e9e9e">?</text>
<text x="1115.0" y="1405.0" font-size="12" font-family="Arial, sans-serif" fill="#212121">Undecided</text>
</svg>