<?xml version="1.0" encoding="UTF-8"?>
<svg xmlns="http://www.w3.org/2000/svg" xmlns:xlink="http://www.w3.org/1999/xlink"
     width="1800" height="1510" viewBox="0 0 1800 1510">
<defs>
</defs>
<rect x="0" y="0" width="1800" height="1510" fill="#f5f5f5" />
<text x="900.0" y="30" font-size="20" text-anchor="middle" font-family="Arial, sans-serif" font-weight="bold" fill="#212121">Gene Review: Mlac1 (Metarhizium brunneum ARSEF 3297)</text>
<rect x="40" y="100" width="1720" height="35" fill="#e3f2fd" stroke="#bdbdbd" stroke-width="1" rx="5" ry="5" />
<text x="50" y="122.5" font-size="16" font-family="Arial, sans-serif" font-weight="bold" fill="#212121">Molecular Function</text>
<rect x="40" y="975" width="1720" height="35" fill="#e3f2fd" stroke="#bdbdbd" stroke-width="1" rx="5" ry="5" />
<text x="50" y="997.5" font-size="16" font-family="Arial, sans-serif" font-weight="bold" fill="#212121">Cellular Component</text>
<rect x="60" y="155" width="220" height="35" fill="#e8f5e9" stroke="#bdbdbd" stroke-width="1" rx="3" ry="3" />
<text x="68" y="176.5" font-size="13" font-family="Arial, sans-serif" fill="#212121">catalytic activity</text>
<rect x="60" y="530" width="220" height="35" fill="#e8f5e9" stroke="#bdbdbd" stroke-width="1" rx="3" ry="3" />
<text x="68" y="551.5" font-size="13" font-family="Arial, sans-serif" fill="#212121">binding</text>
<rect x="60" y="1030" width="220" height="35" fill="#e8f5e9" stroke="#bdbdbd" stroke-width="1" rx="3" ry="3" />
<text x="68" y="1051.5" font-size="13" font-family="Arial, sans-serif" fill="#212121">cellular_component</text>
<rect x="80" y="200" width="200" height="45" fill="#ffffff" stroke="#ff9800" stroke-width="2" rx="3" ry="3" />
<text x="85" y="214" font-size="10" font-family="monospace" fill="#666666">GO:0003824</text>
<text x="85" y="230" font-size="11" font-family="Arial, sans-serif" fill="#212121">catalytic activity</text>
<rect x="80" y="345" width="200" height="45" fill="#ffffff" stroke="#ff9800" stroke-width="2" rx="3" ry="3" />
<text x="85" y="359" font-size="10" font-family="monospace" fill="#666666">GO:0016491</text>
<text x="85" y="375" font-size="11" font-family="Arial, sans-serif" fill="#212121">oxidoreductase activity</text>
<rect x="80" y="575" width="200" height="45" fill="#ffffff" stroke="#4caf50" stroke-width="2" rx="3" ry="3" />
<text x="85" y="589" font-size="10" font-family="monospace" fill="#666666">GO:0005507</text>
<text x="85" y="605" font-size="11" font-family="Arial, sans-serif" fill="#212121">copper ion binding</text>
<rect x="80" y="720" width="200" height="45" fill="#ffffff" stroke="#f44336" stroke-width="2" rx="3" ry="3" />
<text x="85" y="734" font-size="10" font-family="monospace" fill="#666666">GO:0046872</text>
<text x="85" y="750" font-size="11" font-family="Arial, sans-serif" fill="#212121">metal ion binding</text>
<rect x="80" y="1075" width="200" height="45" fill="#ffffff" stroke="#4caf50" stroke-width="2" rx="3" ry="3" />
<text x="85" y="1089" font-size="10" font-family="monospace" fill="#666666">GO:0009986</text>
<text x="85" y="1105" font-size="11" font-family="Arial, sans-serif" fill="#212121">cell surface</text>
<path d="M280,222.5 L390,222.5" stroke="#ff9800" stroke-width="2" />
<path d="M390,222.5 L382,218.5 L382,226.5 Z" fill="#ff9800" />
<rect x="390" y="200" width="200" height="45" fill="#c8e6c9" stroke="#ff9800" stroke-width="2" rx="3" ry="3" />
<text x="395" y="214" font-size="10" font-family="monospace" fill="#666666">GO:0016682</text>
<text x="395" y="230" font-size="11" font-family="Arial, sans-serif" fill="#212121">oxidoreductase activity, acting on ...</text>
<path d="M332,597.5 L337,602.5 L348,589.5" stroke="#4caf50" stroke-width="3" fill="none" />
<path d="M332,1097.5 L337,1102.5 L348,1089.5" stroke="#4caf50" stroke-width="3" fill="none" />
<path d="M280,367.5 L390,367.5" stroke="#ff9800" stroke-width="2" />
<path d="M390,367.5 L382,363.5 L382,371.5 Z" fill="#ff9800" />
<rect x="390" y="345" width="200" height="45" fill="#c8e6c9" stroke="#ff9800" stroke-width="2" rx="3" ry="3" />
<text x="395" y="359" font-size="10" font-family="monospace" fill="#666666">GO:0016682</text>
<text x="395" y="375" font-size="11" font-family="Arial, sans-serif" fill="#212121">oxidoreductase activity, acting on ...</text>
<path d="M332,734.5 L348,750.5" stroke="#f44336" stroke-width="3" />
<path d="M332,750.5 L348,734.5" stroke="#f44336" stroke-width="3" />
<rect x="600.0" y="1370" width="600" height="60" fill="white" stroke="#bdbdbd" stroke-width="1" rx="5" ry="5" />
<text x="620.0" y="1405.0" font-size="16" font-family="Arial, sans-serif" fill="#4caf50">✓</text>
<text x="640.0" y="1405.0" font-size="12" font-family="Arial, sans-serif" fill="#212121">Accept</text>
<text x="715.0" y="1405.0" font-size="16" font-family="Arial, sans-serif" fill="#ff9800">→</text>
<text x="735.0" y="1405.0" font-size="12" font-family="Arial, sans-serif" fill="#212121">Modify</text>
<text x="810.0" y="1405.0" font-size="16" font-family="Arial, sans-serif" fill="#f44336">✗</text>
<text x="830.0" y="1405.0" font-size="12" font-family="Arial, sans-serif" fill="#212121">Remove</text>
<text x="905.0" y="1405.0" font-size="16" font-family="Arial, sans-serif" fill="#ffc107">⚠</text>
<text x="925.0" y="1405.0" font-size="12" font-family="Arial, sans-serif" fill="#212121">Over-annotated</text>
<text x="1000.0" y="1405.0" font-size="16" font-family="Arial, sans-serif" fill="#795548">○</text>
<text x="1020.0" y="1405.0" font-size="12" font-family="Arial, sans-serif" fill="#212121">Non-core</text>
<text x="1095.0" y="1405.0" font-size="16" font-family="Arial, sans-serif" fill="#9e9e9e">?</text>
<text x="1115.0" y="1405.0" font-size="12" font-family="Arial, sans-serif" fill="#212121">Undecided</text>
</svg>